<svg xmlns="http://www.w3.org/2000/svg" viewBox="0 0 14.17 14.17"><defs><style>.cls-1{fill:#99989d;}</style></defs><title>Recurso 2</title><g id="Capa_2" data-name="Capa 2"><g id="Capa_1-2" data-name="Capa 1"><path class="cls-1" d="M7.09,0a7.09,7.09,0,1,0,7.09,7.09A6.92,6.92,0,0,0,7.09,0ZM10,1.64c.12-.06.62.2,1,.64-.28,1.05-.95.93-.95.93s-.49,0-.42-.42l.5-.34A2.4,2.4,0,0,1,10,1.64ZM5.43,9a5.07,5.07,0,0,1-.35.79,1.15,1.15,0,0,1-.35.47,1.05,1.05,0,0,0-.25.35l0,.54a2.4,2.4,0,0,0,.16.6c.09.16-.34,1.1-.34,1.1-.27-.05-.43-.37-.52-.62s-.22-.39-.19-.67-.25-.43-.34-.59A1.31,1.31,0,0,1,3,10.42c0-.16-.35-.38-.35-.38a3.6,3.6,0,0,1-.73-.41,3.28,3.28,0,0,1-.22-.88A3.51,3.51,0,0,1,1.8,8s.25-.19.09-.35A1.15,1.15,0,0,1,1.7,7l-.28-.31a2,2,0,0,1-.25-.47.91.91,0,0,1,0-.41,3.91,3.91,0,0,0-.06-.6A6,6,0,0,1,4.29,1.67l.16.66a1.23,1.23,0,0,1-.54,0,1,1,0,0,0-.29-.06l-.25.35A3.22,3.22,0,0,0,3.25,3a.59.59,0,0,0,.06.31s.44,0,.44-.09A.28.28,0,0,0,3.69,3l-.06-.22a2,2,0,0,1,1-.1c.76.06.47.6.79.73s-.25.57-.38.82-.32-.32-.32-.32.19-.22-.13-.28-.52.57-.36.54a.3.3,0,0,1,.3.33A1.71,1.71,0,0,1,4.39,5a1.82,1.82,0,0,1-.5.6s-.16-.1-.07.09,0,.63,0,.76-.38-.22-.44-.54-.43,0-.56,0a.41.41,0,0,1-.42-.21c-.06-.16-.63.32-.79.41s-.09.35.16.22.47,0,.41.22-.32.09-.28.25.28.32.35.54.66,0,.85-.06.73-.19.79.06.66.35.88.41a2,2,0,0,1,.92.35C5.9,8.37,5.46,8.84,5.43,9ZM6.85,1.61c0,.32-.54.73-.47.85s0,.67-.44.19S5,2,5.08,1.7c0-.06.46-.16.46-.27a1.76,1.76,0,0,1,1.82-.35C7.18,1.4,6.88,1.29,6.85,1.61Zm5.71,5.63a.77.77,0,0,0,.59.34,6.81,6.81,0,0,1-2.43,4.34.53.53,0,0,1-.17-.63l.09-.51.05-.85s0-.88-.84-.46a4.39,4.39,0,0,1-1.44.29c-.91.06-.76-1.87-.76-1.87,0-2.89,2.21-.71,2.21-.71,1.26.84,1.43-.7,1.43-.7l.93-.34.08-.42-.13-.59-1.34-.55a1.26,1.26,0,0,0,.22,1s-.11.61-.4.45l-.78-.39a.8.8,0,0,0-.68.14,1.6,1.6,0,0,1-1.14,0,.92.92,0,0,1,.5-.64l.36-.24a2,2,0,0,1,0-.77c.08-.34.23,0,.57-.3s.57.49,1.07.41.25-.17.59-.34.59.34.59.34l.67.08a3.89,3.89,0,0,1-.06-.56c.43.73,1.05,2.69.82,3l-.25-.11h-.84Z"/></g></g></svg>