<svg xmlns="http://www.w3.org/2000/svg" viewBox="0 0 11.38 14.17"><defs><style>.cls-1{fill:#99989d;}</style></defs><title>Recurso 3</title><g id="Capa_2" data-name="Capa 2"><g id="Capa_1-2" data-name="Capa 1"><g id="Shape_3" data-name="Shape 3"><path class="cls-1" d="M8.75,4.71,6,2.8a.41.41,0,0,0-.57.1L.22,10.42a1.42,1.42,0,0,0-.22.74l.1,2.6a.29.29,0,0,0,.4.28L3,13.26a1.42,1.42,0,0,0,.62-.46L8.85,5.28A.41.41,0,0,0,8.75,4.71Zm.68-1a.41.41,0,0,0,.57-.1l.75-1.07a.41.41,0,0,0-.1-.57L7.93.07a.41.41,0,0,0-.57.1L6.61,1.25a.41.41,0,0,0,.1.57ZM11,11.44l-3.36,0A.89.89,0,0,0,7,11.8l-1.43,2c-.13.18-.05.33.17.33l5.26,0a.41.41,0,0,0,.41-.41V11.85A.41.41,0,0,0,11,11.44Zm0-3.59h-1a.9.9,0,0,0-.64.34l-1.43,2c-.13.18-.05.33.17.33l2.94,0a.41.41,0,0,0,.41-.41V8.26A.4.4,0,0,0,11,7.85Z"/></g></g></g></svg>