<svg xmlns="http://www.w3.org/2000/svg" viewBox="0 0 22.68 11.95"><defs><style>.cls-1{fill:#99989d;}</style></defs><title>Recurso 4</title><g id="Capa_2" data-name="Capa 2"><g id="Capa_1-2" data-name="Capa 1"><path class="cls-1" d="M22.09,11.76v-1.6c0-.11-.23-.19-.5-.19H.5c-.28,0-.5.09-.5.19v1.6c0,.11.23.19.5.19H21.59C21.86,11.95,22.09,11.86,22.09,11.76Z"/><path class="cls-1" d="M21.22,6.3S12.8,5.38,9,.42c0,0-1.79-2-.29,2.83,0,0,.23,3.52-3.75,1.73,0,0-1.36-.47-2.6-3.46,0,0-.61-1.22-1.53-1C.47.67,0,1.1,0,2.49v.64H2.47v1H0V9.07H8.94l2.4-4.15h1.18L10.24,9.07h1.42l1.6-2.62h1.26L13,9.07h1.41l.74-1.31h1.1l-.73,1.31h6.59S23.87,6.93,21.22,6.3Z"/></g></g></svg>