<svg xmlns="http://www.w3.org/2000/svg" viewBox="0 0 22.68 12.67"><defs><style>.cls-1{fill:#99989d;}</style></defs><title>Recurso 5</title><g id="Capa_2" data-name="Capa 2"><g id="Capa_1-2" data-name="Capa 1"><path class="cls-1" d="M0,8.53C0,8.35.09,8.16.14,8A3.58,3.58,0,0,1,2.39,5.46a3.57,3.57,0,0,1,3.3.3A3.55,3.55,0,0,1,7.2,7.59c0,.13.1.17.24.13L8,7.62a.73.73,0,0,0-.08-.52c-.26-.41-.49-.84-.74-1.26a.56.56,0,0,0-.21-.21L5.09,4.75a.52.52,0,0,0-.21-.05A3.07,3.07,0,0,1,3.19,4,9.42,9.42,0,0,1,1.71,2.75a.55.55,0,0,0-.28-.12c-.16,0-.34,0-.5-.07S.77,2.46.7,2.4a2.7,2.7,0,0,1,.19-.22s.09,0,.16-.06L.86,1.88H1c.8,0,1.6,0,2.4.09a2.47,2.47,0,0,1,.87.23c.18.09.31.29.46.45A3.35,3.35,0,0,0,7.09,3.75a7.1,7.1,0,0,0,1,0,.49.49,0,0,0,.28-.14,5.45,5.45,0,0,1,2.08-1.37,4,4,0,0,1,2.46-.12c.48.14,1,.32,1.44.49h0c0-.27,0-.29.26-.42s.52-.21.82-.32l.34.77.41.94a.17.17,0,0,0,.07.08,1,1,0,0,0,.47-.1A.88.88,0,0,1,17,3.36c.18-.05.39-.09.43-.3a.42.42,0,0,0-.26-.46c-.42-.23-.84-.46-1.28-.66s-.79-.29-1.19-.43-.39-.64-.18-.81A2.57,2.57,0,0,1,15,.38a2.76,2.76,0,0,1,.47-.13,1.21,1.21,0,0,1,.82.21c.15.07.29.16.46.26L17.11,0a1,1,0,0,1,.42,1.14.31.31,0,0,0,0,.22l1.86,2.4a1.91,1.91,0,0,1,.11.18c.17.28.11.46-.18.59L19,4.69l.29.21-.4.28c.26,0,.49,0,.72.09A3.63,3.63,0,0,1,21.7,6.42a3.72,3.72,0,0,1,.95,2,.37.37,0,0,0,0,.08v.8a1.05,1.05,0,0,0,0,.12,3.63,3.63,0,0,1-2.84,3.1,3.51,3.51,0,0,1-3.45-1,3.56,3.56,0,0,1-1.07-3.25c0-.25.11-.49.16-.75a1.82,1.82,0,0,0-.69.78,2.8,2.8,0,0,0-.13,1.55c.05.36.15.72.23,1.09a1.69,1.69,0,0,1-.24,0c-.35,0-.7.05-1,.06l-5.25.05A.77.77,0,0,1,7.75,11c-.2-.17-.41-.32-.63-.49-.1.17-.17.32-.26.46a3.72,3.72,0,0,1-6.71-1C.09,9.74,0,9.53,0,9.33Zm19,3a2.58,2.58,0,0,0,0-5.17,2.58,2.58,0,1,0,0,5.17ZM6.12,8A2.55,2.55,0,0,0,3.28,6.39,2.58,2.58,0,0,0,4,11.5,2.54,2.54,0,0,0,6.24,9.43l-2.65.11-.18-1ZM7.34,9.9H8.47c-.11-.21-.16-.46-.3-.53s-.4,0-.6,0h0s-.11.06-.12.1S7.36,9.76,7.34,9.9Z"/></g></g></svg>