<svg xmlns="http://www.w3.org/2000/svg" viewBox="0 0 11.19 14.17"><defs><style>.cls-1{fill:#99989d;}</style></defs><title>Recurso 6</title><g id="Capa_2" data-name="Capa 2"><g id="Capa_1-2" data-name="Capa 1"><g id="_Group_" data-name="&lt;Group&gt;"><path class="cls-1" d="M11.19,0l-8,1.3V11a2.53,2.53,0,0,0-1.44,0A1.93,1.93,0,0,0,0,13c.13.81,1.32,1.35,2.46,1.07A2.06,2.06,0,0,0,4.2,12.31h0l0-8.17,5.89-1.08V9.63a2.58,2.58,0,0,0-1.46,0A2,2,0,0,0,7,11.71a2,2,0,0,0,2.49,1.08,2,2,0,0,0,1.72-1.89Z"/></g></g></g></svg>