<svg xmlns="http://www.w3.org/2000/svg" viewBox="0 0 22.68 14.01"><defs><style>.cls-1{fill:#99989d;}</style></defs><title>Recurso 7</title><g id="Capa_2" data-name="Capa 2"><g id="Capa_1-2" data-name="Capa 1"><path class="cls-1" d="M20.58,9.39V7.21l2.1-1.16L11.34,0,0,6.06,4.52,8.68v1.67l0,0a.34.34,0,0,0-.08.2c0,.76,3.07,1.38,6.86,1.38s6.86-.62,6.86-1.38a.35.35,0,0,0-.08-.2l0,0V8.68l2-1.21V9.39a.59.59,0,1,0,.45,0Zm-9.24,2c-3.36,0-6.09-.38-6.09-.85S8,9.68,11.34,9.68s6.09.38,6.09.85S14.7,11.38,11.34,11.38Zm6.67-4c-.45-.48-2.08-1.75-6.67-1.75S5.12,6.93,4.67,7.42V7S6,5,11.34,5,18,7,18,7Z"/><path class="cls-1" d="M19.88,10.65,19.63,14c.72-1.12,1.32-.7,1.32-.7V10.65C20.17,11,19.88,10.65,19.88,10.65Z"/></g></g></svg>