<svg xmlns="http://www.w3.org/2000/svg" viewBox="0 0 18.17 14.17"><defs><style>.cls-1{fill:#99989d;fill-rule:evenodd;}</style></defs><title>Recurso 10</title><g id="Capa_2" data-name="Capa 2"><g id="Capa_1-2" data-name="Capa 1"><g id="Shape_6" data-name="Shape 6"><path class="cls-1" d="M9.4,4.36A2.18,2.18,0,1,0,7.22,2.19,2.18,2.18,0,0,0,9.4,4.36Zm-5.63,0A2.18,2.18,0,1,0,1.58,2.19,2.18,2.18,0,0,0,3.76,4.36Zm8.9,1.17H.5A.5.5,0,0,0,0,6v7.64a.5.5,0,0,0,.5.5H12.66a.5.5,0,0,0,.5-.5V6A.5.5,0,0,0,12.66,5.53Zm4.69.15-2.25.57a1.17,1.17,0,0,0-.83,1.06V9.72a1.17,1.17,0,0,0,.83,1.06l2.25.58a.63.63,0,0,0,.82-.64V6.32A.63.63,0,0,0,17.35,5.68Z"/></g></g></g></svg>