<svg xmlns="http://www.w3.org/2000/svg" viewBox="0 0 150 142.83"><defs><style>.cls-1,.cls-2,.cls-4,.cls-5,.cls-6{fill:#040006;}.cls-1{opacity:0.4;}.cls-2,.cls-3{opacity:0.2;}.cls-5{opacity:0.05;}.cls-6,.cls-7{opacity:0.1;}.cls-8{opacity:0.15;}</style></defs><title>yoRecurso 1</title><g id="Capa_2" data-name="Capa 2"><g id="Capa_1-2" data-name="Capa 1"><path class="cls-1" d="M114.25,25.18A23.92,23.92,0,0,1,114,28.3l-2.22-1.45a1.42,1.42,0,0,0,.15,1.36,2.45,2.45,0,0,1,.45,1.33c-.07.66-.72,1.07-1.12,1.59-.1.12-.28.26-.13.28a50.65,50.65,0,0,1-5.38-6.71A7.09,7.09,0,0,0,104.45,23a6.19,6.19,0,0,0-1.57-.87c-3.39-1.47-6.13-3-9.65-3.44a40.65,40.65,0,0,0-9.1.34,66.42,66.42,0,0,1-7.8.6c-1.93,0-3.86-.18-5.79-.35-4.21-.38-8.29-.93-12.5-1.31A111.26,111.26,0,0,1,45.35,23.2l-3.08-3.73A12.59,12.59,0,0,1,41,17.68a6.34,6.34,0,0,1-.75-3.94A7,7,0,0,1,42,15.23c.34-1-.63-2-.21-3a.4.4,0,0,1,.3-.27.47.47,0,0,1,.25.08,5.16,5.16,0,0,1,1.1.83,1,1,0,0,0,.55.36.9.9,0,0,0,.51-.17c.82-.47,1.28-1.67,2.09-2.14.56-.32,1.49.07,1.87-.45,0-.06-.64-1.62,0-.9a2.44,2.44,0,0,1-.52.84C53.77,4.7,62.87,1.83,71,1.1s16.31.58,24.27,2.39a17.3,17.3,0,0,1,4.32,1.41,18.09,18.09,0,0,1,3.29,2.45,41.21,41.21,0,0,1,6.21,6.21,24.59,24.59,0,0,1,2.41,4,30.53,30.53,0,0,1,2.5,7.55"/><path class="cls-2" d="M41.76,47.79Q41.21,42.2,41,36.58c-.17-5.91,0-11.81.11-17.72,1.43,1.38,2.69,2.74,4.12,4.12a1.85,1.85,0,0,1,.59.82,1.89,1.89,0,0,1-.08.92C44.15,31,44,37.64,43.26,44.12c-.18,1.54-.53,3.28-1.87,4.08"/><path class="cls-2" d="M108.8,50.24l1-17.94a6.17,6.17,0,0,0-.05-1.59,5.73,5.73,0,0,0-.78-1.74,39.23,39.23,0,0,0-4.06-5.57,23.73,23.73,0,0,1,.47,3.62c.4,5.84,1.28,11.64,2.16,17.43l.94,6.19"/><g class="cls-3"><path class="cls-4" d="M49.28,82.2l.07,0A.1.1,0,0,0,49.28,82.2Z"/><path class="cls-4" d="M103.52,73.54c-.69,3-1.14,6.14-2.43,9-2.6-.69-5.19-1.44-7.77-2.19-1.79-1.95-4.59-2.95-5.91-5.24-4.1.31-8.15.69-12.23,1.15L62.81,74.89l-1,.85a8.18,8.18,0,0,1-1.05.83A7.83,7.83,0,0,0,60,77a5.53,5.53,0,0,0-1,1.21,7.29,7.29,0,0,1-2.23,2.05,8.87,8.87,0,0,1-2.55.82l-5.06,1.19a.11.11,0,0,1,0-.13l-.07,0a14.54,14.54,0,0,1-1-4.23,33.44,33.44,0,0,0-1.05-3.92L43.52,62.5,42.43,59a10.37,10.37,0,0,0-1-2.29,11.54,11.54,0,0,1,.82,4,15.76,15.76,0,0,0,.09,2.23,14.56,14.56,0,0,0,.56,1.92c.24.77.41,1.55.58,2.34l2,9.34c.29,1.35.59,2.7.83,4.06A62.81,62.81,0,0,0,47.88,88c.23,0,.47.28.33.49,4.35,4.76,10.4,7.79,14,13.15,8.83.82,17.71,1.73,26.38-.08,4.24-3.94,8.44-7.75,12.68-11.68a14.84,14.84,0,0,0,1.53-1.57c.25,0,.12-1.05.37-1,.25-4.54,1.46-8.94,2.29-13.42.19-1,.35-2.08.52-3.12l.26-1.69c.23-1.45.45-2.9.63-4.35A31.09,31.09,0,0,0,103.52,73.54ZM90.76,92.42l.17,0,0,0-.18,0c0,.17-.18.28-.33.35L84.63,95.6a15.21,15.21,0,0,1-1.44.67c-1.95-.46-4-.45-5.71-1.5,0-.93.1-1.86.18-2.79l.17-1.89a25.58,25.58,0,0,1,.34-2.68c0-.09.07-.28.16-.27-1.94.07-4,1-5.81.26-.17-.08-.27.21-.25.39L72.4,89l.35,3.61a4.63,4.63,0,0,0,.6,2.19,8.37,8.37,0,0,1-1.91.64c-1.42.35-2.82.65-4.24,1a49.94,49.94,0,0,1-7.7-4.09c-.37-3.54.79-7.1.32-10.62l5.77.44,2.91.22c2.6.2,5.21.4,7.83.36,2,0,4-.21,6-.38l3.38-.29,4.57-.4A45.46,45.46,0,0,0,91,92a.55.55,0,0,1-.07.36H91l-.1,0A.12.12,0,0,1,90.76,92.42Z"/><path class="cls-4" d="M48.07,88.64c-.07-.2-.13-.4-.19-.61a.24.24,0,0,0-.16.05C47.48,88.29,47.78,88.77,48.07,88.64Z"/></g><path class="cls-5" d="M62.66,82l12.64.72L87.22,82c-1.85,2-5,3.13-9,3.68H72.28C66.91,84.82,63.76,83.58,62.66,82Z"/><polygon class="cls-6" points="104.77 25.03 92.7 20.83 75.24 22.38 57.2 22 49.41 25.73 45.2 55.13 50.9 87.86 62.17 101.68 48.07 88.64 41.32 55.13 45.9 23.37 58.23 18.33 75.45 19.78 93.22 18.66 104.45 22.97 104.77 25.03"/><g class="cls-7"><path class="cls-4" d="M59.05,50.35a1.39,1.39,0,0,0-1.68.84,2.33,2.33,0,0,0,.24,2.67,3.44,3.44,0,0,0,3,.87c.91-.22,1.85-1.19,1.06-2.07a.54.54,0,0,0-.75,0,1.64,1.64,0,0,1-1,.59,2.79,2.79,0,0,1-1.36-.09c-.53-.23-.5-.72-.48-1.22,0-.73.19-1.29.94-1.57,0,0,0,0,0,0Z"/></g><g class="cls-7"><path class="cls-4" d="M66.14,51.09a13,13,0,0,0-11.61-.69c-.64.25-.35,1.3.29,1a17.13,17.13,0,0,1,11.31-.33,0,0,0,0,0,0,0Z"/></g><g class="cls-7"><path class="cls-4" d="M89.79,50.1a2.33,2.33,0,0,0-1.7,3.39,3.2,3.2,0,0,0,2.24,1.17,1.64,1.64,0,0,0,1.73-1.5.6.6,0,0,0-1-.42c-.38.38-.59.69-1.19.68a1.23,1.23,0,0,1-1.27-.89c-.26-1,.63-1.72,1.25-2.35a0,0,0,0,0,0-.08Z"/></g><g class="cls-7"><path class="cls-4" d="M85,50.86a57,57,0,0,1,6-.41,12.3,12.3,0,0,1,3.16.41c.79.21,1.11.46,1.85.12a.19.19,0,0,0,.07-.26c-.63-1.48-3.66-1.55-5.08-1.65a9.28,9.28,0,0,0-6,1.75s0,0,0,0Z"/></g><g class="cls-7"><path class="cls-4" d="M65.78,72.18c3.54.35,6.16,3,9.79,3.06a7.1,7.1,0,0,0,3.68-1,16.48,16.48,0,0,1,2.53-1.43,26.58,26.58,0,0,1,2.75-.58c.16,0,.11-.26,0-.28-3.46-.39-6,2.78-9.46,2.58-2-.12-3.6-1.1-5.37-2a4.74,4.74,0,0,0-3.9-.51.05.05,0,0,0,0,.11Z"/></g><g class="cls-7"><path class="cls-4" d="M60.5,81.91c-.91,3.32-.89,7.1-1.07,10.52,0,.64,1,.64,1,0,.18-3.33.15-7,1-10.25a.5.5,0,0,0-1-.27Z"/></g><g class="cls-7"><path class="cls-4" d="M89.13,82.2q.73,5,1,10.13c0,.64,1,.64,1,0q-.3-5.22-1-10.4c-.09-.63-1.05-.36-1,.27Z"/></g><g class="cls-7"><path class="cls-4" d="M60.64,82.61c4.9.47,9.83,1,14.76,1.22s9.62-.55,14.39-1c.63-.07.64-1.06,0-1-4.77.5-9.58,1.23-14.39,1s-9.86-.75-14.76-1.22c-.64-.06-.63.94,0,1Z"/></g><g class="cls-8"><path class="cls-4" d="M40.2,46.87a10,10,0,0,0-1.76,2.56.5.5,0,0,0,.78.6c.89-.71,1.95-.86,2-2a.5.5,0,0,0-.85-.35,10.27,10.27,0,0,0-2.12,3.48c-.2.55.62.83.91.38A15,15,0,0,1,41,49.24l-.78-.6a12.76,12.76,0,0,0-1.82,4.1.5.5,0,0,0,.91.38l2-2.59c.35-.47-.39-1-.78-.6a5.6,5.6,0,0,0-1.87,4.57.5.5,0,0,0,1,.13A5.09,5.09,0,0,1,41.31,52l-.71-.71c-1.43,1.37-1.63,3.19-1.7,5.08a.5.5,0,0,0,1,.13,23.9,23.9,0,0,1,1.2-3.22l-.91-.38a55.24,55.24,0,0,0-.84,5.91l1-.13a4.4,4.4,0,0,1-.12-2c.16-.32.8-.68,1.07-.9l-.83-.49a11.65,11.65,0,0,0-.58,5.08c.09.59.94.39,1-.13a5.54,5.54,0,0,1,.79-2.8l-.91-.38a11.71,11.71,0,0,0-.37,5.14.5.5,0,0,0,1,0,22.28,22.28,0,0,1,.66-3.11c.18-.62-.75-.87-1-.27a9.48,9.48,0,0,0,.09,5.37.5.5,0,0,0,1-.13,18.19,18.19,0,0,1,.19-3.65l-1-.13a12.79,12.79,0,0,0,1,5.61c.28.58,1.14.07.86-.5a11.71,11.71,0,0,1-.85-5.1c0-.54-.89-.71-1-.13a19.56,19.56,0,0,0-.22,3.91L42,64a8.38,8.38,0,0,1-.09-4.84c-.32-.09-.64.08-1,0a28,28,0,0,0-.66,3.36h1c-.22-3-.09-3.33.37-4.86.17-.56-.61-1-.91-.51a6.32,6.32,0,0,0-.92,3.24c.33,0,.65-.12,1-.16a10.66,10.66,0,0,1,.58-4.56.51.51,0,0,0-.83-.49c-.45.38-1.26.82-1.44,1.4a6.3,6.3,0,0,0,.24,2.43c.09.59.93.38,1-.13a52.78,52.78,0,0,1,.81-5.65c.1-.52-.66-.93-.91-.38a25.65,25.65,0,0,0-1.3,3.46l1,.13c.06-1.63.15-3.17,1.41-4.37.47-.45-.22-1.11-.71-.71a6,6,0,0,0-2,3.08l1,.13a4.62,4.62,0,0,1,1.58-3.87L40.4,50l-2,2.59.91.38a12,12,0,0,1,1.72-3.86c.32-.47-.39-1-.78-.6a16.29,16.29,0,0,0-2,2.46l.91.38a8.94,8.94,0,0,1,1.86-3L40.24,48c0,.34-1.38,1.08-1.71,1.34l.78.6a9.16,9.16,0,0,1,1.6-2.36c.44-.47-.27-1.18-.71-.71Z"/></g><path class="cls-2" d="M150,141.48c-.19-.78-1-1.18-1.58-1.78a6.37,6.37,0,0,1-1.14-3.05,17,17,0,0,0-3-6.53,5.19,5.19,0,0,0-1.23-1.26,6,6,0,0,0-1.84-.71c-15.18-3.91-31-4.21-45.33-10.62A2.41,2.41,0,0,1,96,120a4.51,4.51,0,0,1-1.75,1.8,15.37,15.37,0,0,1-6.4,1.8,127,127,0,0,1-23.16.66c-3.49-.22-7.21-.68-9.84-3a3.89,3.89,0,0,1-1.5-2.51c-.08-1,.45-2.26,1.45-2.27-14,.82-27.68,4.91-41.68,6a19.76,19.76,0,0,0-4.28.62,5.87,5.87,0,0,0-3.43,2.48,19.41,19.41,0,0,0-1.09,3c-1.07,2.85-3.78,5-4.35,8,12.36,3.5,24.94,4.33,37.77,4.85q46.94,1.93,93.93,1.19a120.06,120.06,0,0,0,18-1.22"/><path class="cls-2" d="M49.41,116.52c-1.16,1.86-.59,4.36.58,6.21a14.83,14.83,0,0,0,7.46,5.68,38.75,38.75,0,0,0,9.33,1.92c7,.8,14.3,1.23,21.1-.77a30.6,30.6,0,0,0,11.12-6,3.21,3.21,0,0,0,1.37-2.07c.08-1.32-1.4-2.22-2.72-2.32a2,2,0,0,0-1,.13,3,3,0,0,0-.95.9c-1.71,2-4.43,2.84-7,3.35-7.18,1.41-14.57,1.23-21.89,1a22.52,22.52,0,0,1-7.48-1.12,17.76,17.76,0,0,1-4-2.31,5,5,0,0,1-2-2.3,1.89,1.89,0,0,1,1.19-2.46l-5.34.38"/><path class="cls-6" d="M73.91,102.69a4.8,4.8,0,0,0-.87.37c-2.62,1.32-5.33,2.72-7.1,5.06a19.28,19.28,0,0,0-2.22,4.29c-1.41,3.4-2.85,6.9-2.93,10.58a7.23,7.23,0,0,1-6.09-2.24,3.75,3.75,0,0,1-1.14-2.54,2,2,0,0,1,1.7-2,4.63,4.63,0,0,0,.42,2.15l-.27-22.62a21.64,21.64,0,0,1,5.78,5.1,3.29,3.29,0,0,0,1,1,3,3,0,0,0,1.21.24q5.52.33,11.06.54"/><polygon class="cls-4" points="75.19 103.3 61.94 102.4 47.35 88.78 40.64 55.14 45.36 22.42 57.55 17.62 75.67 19.08 75.57 20.41 57.76 18.98 46.57 23.38 41.99 55.11 48.57 88.1 62.5 101.1 75.28 101.97 75.19 103.3"/><polygon class="cls-4" points="75.28 103.3 75.19 101.97 87.97 101.1 101.91 88.11 108.15 55.11 103.91 23.38 92.72 18.98 74.91 20.41 74.8 19.08 92.92 17.62 105.12 22.42 109.5 55.14 109.48 55.25 103.13 88.78 88.53 102.4 75.28 103.3"/><path class="cls-4" d="M67.14,51.53a13.61,13.61,0,0,0-6.94-2.44c-2-.08-5.19.13-6.51,1.83a.12.12,0,0,0,.14.18,13.81,13.81,0,0,1,6.64-1.35,15.36,15.36,0,0,1,6.65,1.8,0,0,0,0,0,0,0Z"/><path class="cls-4" d="M61.53,52.09a.76.76,0,1,1,0-1.52h.11a2.32,2.32,0,1,0,.56,1.14A.76.76,0,0,1,61.53,52.09Z"/><path class="cls-4" d="M48.59,45.89c-.18-.18-1.07-.87-1.13-1.11,0,.18,1.27.62,1.6.8a.18.18,0,0,0,.22-.29c-.38-.39-1.37-1.28-.29-.63.52.32,1,.7,1.51,1,.18.13.41-.16.24-.31a4.06,4.06,0,0,1-1-1.05q-.89-1.44,0-.42a10,10,0,0,1,1.66,1.59.16.16,0,0,0,.25-.2,7,7,0,0,1-1.15-2.13c-.05-.48.24.09.48.34A15.14,15.14,0,0,1,52.29,45a.13.13,0,0,0,.22-.13c0-.1-1.11-2.24-.68-2.47.08,0,1.53,2.06,1.7,2.3a.15.15,0,0,0,.25-.15c-.25-.53-1.14-3.35-1.42-3.3a31.19,31.19,0,0,1,1.74,3.35c.1.21.39.05.35-.15a34.75,34.75,0,0,1-.53-3.93l-.4.05a39.15,39.15,0,0,0,1.4,3.83c.08.19.37.08.37-.1q0-2.2-.15-4.4l-.38.05a36.65,36.65,0,0,0,1,4.42c.06.2.38.93.37.71,0-1.46,0-3.61-.09-3.61h-.44c.12,0,.46,1.85,1,3.09.09.2.41-.28.41-.49a20.87,20.87,0,0,1,.2-3.43c-.14,0-.29-.13-.43-.15a15.17,15.17,0,0,0,.71,3.22.23.23,0,0,0,.41,0c.51-1.14.13-2.56.84-3.59L58.31,40a7.36,7.36,0,0,0,.61,3.65c.1.23.41.08.43-.12.11-1.15-.25-2.47.53-3.45l-.39-.16a6.37,6.37,0,0,0,.37,3.74c.11.22.41.09.43-.12.1-1.21.2-2.42.29-3.64l-.4.16c.53.68.17,1.57.17,2.32a6.76,6.76,0,0,0,.29,1.83c.07.25.41.65.43.41.1-1.27.37-3.17.82-3.17H61.5c.27,0-.21,2.06.42,3.25.09.16.33-.12.38-.28.34-1.12.64-2.36.9-3.5-.13,0-.27-.09-.4-.11.07,1.11.14,2.2.2,3.31a.21.21,0,0,0,.42,0,18.15,18.15,0,0,0,.78-3.61l-.49.06c.47,1.29.07,2.66.37,4a.28.28,0,0,0,.5.06,6.71,6.71,0,0,0,.67-3.74l-.59.08a10.2,10.2,0,0,1,.57,3.26.3.3,0,0,0,.58.08,19.39,19.39,0,0,0,.86-3.19l-.56-.08a8.46,8.46,0,0,1-.22,3.24.28.28,0,0,0,.54.15,30.52,30.52,0,0,0,1.07-3.41L67,41a15.18,15.18,0,0,1-.25,4,.27.27,0,0,0,.51.14c.5-1.35,1-2.7,1.38-4.08l-.49-.14a31.64,31.64,0,0,0-.33,3.84c0,.29.4.28.48,0A18.19,18.19,0,0,0,69,41.46H68.5c0,1-.49,2.32-.3,3.52,0,.22.4-.05.44-.27a22.08,22.08,0,0,0,.51-3.25h-.42c0,1,.08.73.13.95s.39.45.43.2.32-.62.48-1a.21.21,0,1,0-.32-.28,2.42,2.42,0,0,0-.59,1.26l.43.07a1.12,1.12,0,0,0-.14-.77c-.07-.18-.38-.46-.42-.22a13.22,13.22,0,0,1-.53,2.76h.44c-.18,0,.31-2,.34-3.14,0-.31-.44-.18-.47.11a15.63,15.63,0,0,1-.72,3.22l.48.09a30.25,30.25,0,0,1,.34-3.69.26.26,0,0,0-.49-.13c-.41,1.38-.9,2.73-1.4,4.08l.51.14A15.78,15.78,0,0,0,67.5,41a.27.27,0,0,0-.53-.07,30,30,0,0,1-1.08,3.4l.54.15a8.8,8.8,0,0,0,.25-3.39c0-.29-.5-.42-.56-.08a19.39,19.39,0,0,1-.88,3.19l.58.08a10.51,10.51,0,0,0-.58-3.42c-.11-.29-.63-.29-.59.08a6.56,6.56,0,0,1-.54,3.46l.5.07c-.34-1.33.07-2.67-.42-4a.25.25,0,0,0-.49.07A18.92,18.92,0,0,1,63,44l.42.06c-.08-1.11-.15-2.23-.21-3.34,0-.22-.35-.29-.4-.05-.26,1.14-.57,2.26-.91,3.38l.38,0c-.59-1.11-.13-2.43-.38-3.62,0-.22-.34-.18-.41,0a13.52,13.52,0,0,0-.85,3.75l.43-.06A12.27,12.27,0,0,1,60.95,41a1.76,1.76,0,0,0-.39-1.18.23.23,0,0,0-.43.12c-.1,1.21-.19,2.42-.29,3.64l.43-.12A6.06,6.06,0,0,1,60,39.92a.23.23,0,0,0-.39-.16c-.9,1.13-.52,2.42-.67,3.77l.45-.06A7,7,0,0,1,58.81,40c0-.27-.34-.31-.46-.13-.79,1.11-.27,2.4-.8,3.6l.41.05a15,15,0,0,1-.71-3.15c0-.22-.4-.33-.43-.06a19.66,19.66,0,0,0-.21,3.36l.41-.11a10.76,10.76,0,0,1-1-3.63c0-.28-.44-.29-.44,0,0,1.46.09,2.92.14,4.37l.37-.05a34.35,34.35,0,0,1-1-4.42c0-.21-.39-.16-.38.05q.12,2.2.14,4.4l.39-.05a36,36,0,0,1-1.36-3.79c-.06-.22-.41-.18-.4.05a19.77,19.77,0,0,0,.57,4l.35-.15c-.72-1.28-1.4-2.59-2.09-3.88a.16.16,0,0,0-.3.13c.25,1,.51,2.69,1.21,3.49q.37,0,0-.3l-.52-.7c-.36-.47-.72-.94-1.1-1.39a.14.14,0,0,0-.24.1,8.17,8.17,0,0,0,.24,1.63,8.65,8.65,0,0,1,.38,1c.15-.54-1.32-1.65-1.81-2.08-.09-.08-.28,0-.22.13A8.54,8.54,0,0,0,51.19,45l.14-.16q-.39-.42-.82-.81c-.42-.39-.87-.75-1.32-1.11a.19.19,0,0,0-.32.19,4.78,4.78,0,0,0,1.6,2.55l.24-.31-2.52-1.73c-.13-.09-.34.06-.28.22A4.66,4.66,0,0,0,49,45.55l.22-.29A17.63,17.63,0,0,0,47,44.39c-.12,0-.23.13-.13.22.55.46,1.12.89,1.68,1.32,0,0,0,0,0,0Z"/><path class="cls-4" d="M49.24,45.32c-.08-.17-.39-1-.43-.85s.76.87.8.91.36,0,.29-.17l-.65-1.58-.34.2a14.5,14.5,0,0,1,1.68,1.79c.13.16.43,0,.36-.21a14,14,0,0,0-1.06-2.14l-.35.27a11.84,11.84,0,0,1,1.22,1.62.23.23,0,0,0,.42-.18,5.07,5.07,0,0,0-.91-1.89l-.32.32a3.5,3.5,0,0,1,1.11,1.1.24.24,0,0,0,.41-.24l-1.09-2-.39.3,2,2.08c.19.21.56-.06.4-.31A10.42,10.42,0,0,1,51.17,42l-.43.25a8.45,8.45,0,0,1,1.78,2.56c.12.24.54.07.44-.19l-1-2.71-.43.18c.54.73,1,1.47,1.49,2.25a.25.25,0,0,0,.46-.12c0-1-.67-1.7-.6-2.66l-.48.13L54,43.83a.27.27,0,0,0,.5-.14c0-1.05-1.24-1.62-1.22-2.63l-.51.14,1.46,3c.14.29.59.21.5-.08a5.45,5.45,0,0,1-.28-2.68h-.54c.3,0,.51,1.47.63,2.32,0,.29.47.18.54-.06a7.23,7.23,0,0,0,.09-3l-.55.06c.27,1,.58,1.9.94,2.84a.29.29,0,0,0,.56-.08A11.75,11.75,0,0,0,56,40.76l-.55.15.39,2.79c0,.29.49.26.55,0a4.73,4.73,0,0,0-.21-3,.29.29,0,0,0-.56,0,6,6,0,0,0-.28,1.95l.58-.08a13.2,13.2,0,0,0-.5-2.15.3.3,0,0,0-.58.16l.55,2.43a.31.31,0,0,0,.6,0,5.29,5.29,0,0,0,.13-2.59l-.47.36c.42.21.43,1.85.47,2.31a.33.33,0,0,0,.61.16c.15-.27.52-2.46.54-2.47l-.54-.31L57,43a.37.37,0,0,0,.68.18,3.47,3.47,0,0,0,.41-2.38l-.72.1.36,2.22a.37.37,0,0,0,.71,0A16.46,16.46,0,0,1,59,40.72l-.73-.1L58.42,43c0,.39.67,1,.74.58a8.77,8.77,0,0,1,.42-2.15h-.73a5.43,5.43,0,0,1,.2,2c0,.37.54.76.71.41a12.72,12.72,0,0,0,.68-2.43h-.77a16.51,16.51,0,0,1,.2,2.07c0,.41.68.34.77-.13a6.46,6.46,0,0,1,.7-2.13c-.24-.07-.48-.19-.72-.25l.08,1.82a.39.39,0,0,0,.76.09c.18-.59.14-1.59.63-2l-.64-.17a8,8,0,0,1,.11,2.61c-.05.46.61.47.75.1a10,10,0,0,0,.58-2.2l-.75-.1a13.93,13.93,0,0,0,0,2.38c0,.26.33.53.58.34.92-.7.25-1.61.81-2.46l-.74-.2a12.26,12.26,0,0,1,0,2.5c0,.4.57.54.75.2.36-.67.08-1.8.56-2.32l-.69-.29.13,3c0,.44.73.59.8.11l.46-3-.81-.11c.07.78.11,1.55.11,2.34,0,.45.7.56.8.11l.54-2.54-.79-.11L64.66,44a.4.4,0,0,0,.8,0,19.13,19.13,0,0,1,.47-2.76l-.78-.11.18,3.31c0,.52.74.59.8.09.13-1.06.25-2.08.38-3.08h-.8c0,1,.08,1.82.11,2.77a.4.4,0,0,0,.79.06A8.45,8.45,0,0,0,67,41.51l-.79.1a10.21,10.21,0,0,1,.21,2.65c0,.53.75.5.81,0A5.23,5.23,0,0,1,68,41.71l-.76-.21A13.71,13.71,0,0,1,67,44.74a.43.43,0,0,0,.79.33,12.44,12.44,0,0,0,.93-2c.2-.54-.68-.79-.87-.24a11.15,11.15,0,0,1-.81,1.77l.79.33a16,16,0,0,0,.22-3.46c0-.42-.53-.43-.76-.1a6.81,6.81,0,0,0-.93,3.06h.81a11.8,11.8,0,0,0-.25-3c-.1-.44-.81-.4-.79.05a7.56,7.56,0,0,1-.33,2.52l.79.09c0-1-.08-1.92-.12-2.88a.4.4,0,0,0-.8,0c-.13,1.06-.25,2.18-.38,3.18h.8c-.06-1-.12-2.21-.18-3.31,0-.43-.67-.33-.78.12a23.92,23.92,0,0,0-.5,3.19h.8c0-1,0-2.14-.06-3.09,0-.44-.69-.68-.79-.22-.18.85-.36,1.63-.55,2.48l.8.08c0-.78,0-1.57-.09-2.35,0-.43-.74-.61-.81-.12l-.45,3,.8.11-.13-3a.41.41,0,0,0-.69-.29c-.72.79-.21,1.61-.68,2.49l.75.2a12.26,12.26,0,0,0,0-2.5.4.4,0,0,0-.74-.2c-.35.55-.13,1.89-.52,2.19l.58.34a13.93,13.93,0,0,1,0-2.38c0-.42-.69-.53-.75-.1a9.85,9.85,0,0,1-.58,2.2l.75.1a8.88,8.88,0,0,0-.14-2.82.39.39,0,0,0-.64-.17c-.77.63-.56,1.44-.83,2.32l.76.1L61.39,41a.39.39,0,0,0-.72-.2,6.91,6.91,0,0,0-.78,2.2l.77.1-.2-2.53a.39.39,0,0,0-.77,0,4.78,4.78,0,0,1-.57,2.26l.71.19a15.3,15.3,0,0,0-.23-2.7.38.38,0,0,0-.73,0l-.41,2.63.74.1L59,40.62c0-.42-.6-.23-.73.18a6,6,0,0,0-.58,2.66h.71A9.91,9.91,0,0,0,58,41c-.07-.4-.76-.45-.72,0a2.66,2.66,0,0,1-.3,1.95c.23.06.45.09.68.15l-.21-2.49a.37.37,0,0,0-.54-.32c-1,.52-.26,1.88-.74,2.76l.61.16c-.08-.85.13-2.41-.8-2.86-.26-.13-.52.37-.47.65.15.8.1.54-.12,2.54H56a9.57,9.57,0,0,0-.57-2.71c-.19.05-.39,0-.58,0a12.37,12.37,0,0,1,.51,2.08c.05.33.59.5.58.17,0-.62.07-1.55.25-1.55h-.56c.36,0,.43,1,.22,3h.55A26.28,26.28,0,0,0,56,41.21c-.05-.36-.6-.43-.55-.08a10.07,10.07,0,0,1,0,2.54c.19,0,.37-.11.56-.13-.36-.94-.67-1.91-.94-2.88-.08-.29-.6-.29-.55,0a6.42,6.42,0,0,1-.07,2.75h.54A9.73,9.73,0,0,0,54.42,41c-.09-.23-.49-.29-.54,0a6.73,6.73,0,0,0,.28,3.11l.5-.21-1.46-3c-.12-.26-.51-.12-.51.14,0,1.1,1.2,1.58,1.23,2.64l.5-.13-1.58-2.11a.26.26,0,0,0-.48.13c-.06,1,.64,1.69.62,2.66l.46-.12c-.47-.77-1-1.52-1.51-2.24-.14-.19-.53-.09-.43.18l1,2.71.44-.19a8.71,8.71,0,0,0-1.84-2.67c-.17-.16-.51,0-.43.25a10.56,10.56,0,0,0,1.23,2.46l.4-.31-2-2.07a.25.25,0,0,0-.39.3l1.09,2,.41-.24A5.11,5.11,0,0,0,50.18,43c-.19-.13-.47.13-.32.32a5,5,0,0,1,.87,1.78l.42-.18a12.36,12.36,0,0,0-1.3-1.7.22.22,0,0,0-.35.27,13,13,0,0,1,1,2l.36-.21a14.5,14.5,0,0,0-1.69-1.77.2.2,0,0,0-.32.25l.71,1.56.27-.21-1.27-1.22a.14.14,0,0,0-.23.17L49,45.44c.07.14.26,0,.2-.12Z"/><path class="cls-4" d="M61.25,42.07c.12,0,.23,1.39.24,1.39H62s0-.17,0-.23c0-.35-.55-.38-.55,0v.55l.61-.09c-.08-.28-.18-.55-.27-.82l-.62.17.16.48a.33.33,0,0,0,.64-.09A1.5,1.5,0,0,0,61.35,42a.33.33,0,0,0-.49.28,8,8,0,0,1-.21,1.51l.56-.15c-.44-.49-.25-1.21-.77-1.67a.35.35,0,0,0-.57.15c-.13.39,0,1.05-.28,1.36l.59.15c-.09-.47-.12-1.65-.87-1.56s-.59,1.17-.63,1.63l.68-.18-.86-1.23c-.17-.25-.61-.09-.68.24s-.14.93-.24.93h.73a4.7,4.7,0,0,0-1-2.32c-.21-.26-.7-.13-.67.2s0,.43.06.67a.39.39,0,0,0,.79,0,3.81,3.81,0,0,0-.32-2c-.17-.41-.72-.15-.75.2s-.06.94-.06,1.42l.81-.11a4,4,0,0,1-.25-1.29.42.42,0,0,0-.84,0A7.84,7.84,0,0,0,56.25,42a.43.43,0,0,0,.71.19,3.08,3.08,0,0,0,.61-.88,3.28,3.28,0,0,1,.18-.54c-.23.3,0,.71,0,1.1s.72,1.06.8.56.14-1,.15-1H58a14.34,14.34,0,0,0,.6,2.07c.14.27.64-.06.6-.38-.11-.79-.32-1.66-.39-2.47,0-.51-.78-.58-.8-.06a8.12,8.12,0,0,1-.14,1.21l.8.09c-.06-.57-.09-1.94-.84-2.08a.66.66,0,0,0-.6.23c-.4.41-.39,1.09-.81,1.55.24.06.48.74.71.81-.14-.53-.21-1-.22-1H56s.11.39.29.89.81.07.81-.42,0-1.1,0-1.57c-.25.07-.5-.2-.75-.13a2.63,2.63,0,0,1,.23,1.23h.79a1.63,1.63,0,0,1-.07-.45c-.22.09-.44.31-.67.4a4.41,4.41,0,0,1,.87,1.87.38.38,0,0,0,.73,0,5.64,5.64,0,0,0,.23-.77l-.68.1.88,1.23a.37.37,0,0,0,.68-.18c0-.28.12-.62-.1-.85.14.14.16.78.2,1a.35.35,0,0,0,.59.15c.47-.54.24-1,.44-1.68l-.57.15c.47.41.35,1.19.78,1.66a.34.34,0,0,0,.56-.15,8.8,8.8,0,0,0,.23-1.69l-.49.28a1,1,0,0,1,.3.86l.64-.09-.17-.48c-.14-.39-.76-.22-.62.17s.19.54.29.81.65.29.61-.08L62,43.19l-.54.07,0,.19c.07.34.56.19.51-.14-.07-.51-.16-1.21-.64-1.52a.12.12,0,0,0-.12,0l-.08.07c-.1.06,0,.23.08.21Z"/><path class="cls-4" d="M51.11,43.49l-.1-.11c-.1-.11-.31,0-.26.15A13.5,13.5,0,0,0,51.48,45c.16.29.57,0,.43-.25l-.36-.77q-.62-.4-.2-.09a13.09,13.09,0,0,0,1.13.87c.21.16.47-.1.42-.32a5.38,5.38,0,0,0-.72-1.71l-.44.34,1.49,1.56a.28.28,0,0,0,.44-.06c.35-.61-.47-1.56-.73-2.09l-.37.37a3.41,3.41,0,0,1,1.23,1.29.28.28,0,0,0,.52-.14,2.42,2.42,0,0,0-.71-1.53c-.19-.23-.59.08-.41.32a8.09,8.09,0,0,1,.86,1.45.26.26,0,0,0,.48-.06c.17-.76-.32-1.22-.36-2l-.48.2a9.13,9.13,0,0,1,1.16,1.39c.15.22.61.17.57-.15q-.12-.88-.25-1.76l-.47.36a1.93,1.93,0,0,1,.77,1.15.31.31,0,0,0,.61-.17l-.23-1.4-.57.24A6.31,6.31,0,0,1,56,43.3c.14.35.7.2.57-.16a7,7,0,0,0-.73-1.45.31.31,0,0,0-.57.24l.22,1.4.61-.17A2.63,2.63,0,0,0,55,41.63c-.26-.16-.5.1-.47.36.08.56.17,1.12.26,1.67l.56-.24a10.36,10.36,0,0,0-1.3-1.48c-.16-.15-.5-.06-.48.2.05.62.54,1.24.41,1.84l.48-.06a9.43,9.43,0,0,0-.86-1.45l-.45.26A2,2,0,0,1,53.75,44l.52-.14a4,4,0,0,0-1.44-1.47.27.27,0,0,0-.37.37c.1.2.83,1.34.72,1.54l.44-.06-1.48-1.57a.28.28,0,0,0-.44.34,5,5,0,0,1,.66,1.58l.42-.32c-.44-.34-1-1.09-1.64-1.1a.28.28,0,0,0-.25.14c-.28.56.34,1.23.59,1.7l.43-.25A13.47,13.47,0,0,0,51,43.38l-.07.26.14,0a.06.06,0,0,0,0-.1Z"/><path class="cls-4" d="M83.36,51.55A15.43,15.43,0,0,1,90,49.75a13.74,13.74,0,0,1,6.64,1.35.12.12,0,0,0,.14-.18c-1.32-1.7-4.53-1.91-6.51-1.83a13.61,13.61,0,0,0-6.94,2.44,0,0,0,0,0,0,0Z"/><path class="cls-4" d="M92.14,52.09a.76.76,0,1,1,0-1.52h.11a2.32,2.32,0,1,0,.56,1.14A.76.76,0,0,1,92.14,52.09Z"/><path class="cls-4" d="M101.91,45.93c.56-.44,1.13-.87,1.68-1.32.1-.08,0-.25-.13-.22a17.64,17.64,0,0,0-2.23.87l.22.29a4.65,4.65,0,0,0,1.12-1.7c.06-.15-.15-.31-.28-.22l-2.52,1.73.24.31a4.78,4.78,0,0,0,1.6-2.55.19.19,0,0,0-.32-.19c-.45.35-.9.71-1.32,1.11.08-.07-1.05,1.13-.67,1s.94-1.91,1.16-2.48c.05-.13-.13-.21-.22-.13a8.27,8.27,0,0,0-1.56,1.55s-.6.57-.24.54.59-2.26.62-2.67a.14.14,0,0,0-.24-.1c-.38.46-.75.92-1.1,1.39-.09.11-.89,1.23-.51,1,0,0,.47-1.13.48-1.16a22.47,22.47,0,0,0,.73-2.33.16.16,0,0,0-.3-.13c-.69,1.3-1.37,2.6-2.09,3.88l.35.15a19.77,19.77,0,0,0,.57-4,.21.21,0,0,0-.4-.05,36,36,0,0,1-1.36,3.79l.39.05q0-2.2.14-4.4c0-.21-.34-.27-.38-.05a34.35,34.35,0,0,1-1,4.42l.37.05c.05-1.46.11-2.91.14-4.37,0-.28-.41-.28-.44,0a10.76,10.76,0,0,1-1,3.63l.41.11a19.66,19.66,0,0,0-.21-3.36c0-.27-.41-.17-.43.06a15.05,15.05,0,0,1-.71,3.15l.41-.05c-.53-1.19,0-2.5-.8-3.6-.13-.18-.49-.14-.46.13a7,7,0,0,1-.54,3.47l.45.06c-.15-1.36.23-2.64-.67-3.77a.23.23,0,0,0-.39.16,6,6,0,0,1-.31,3.51l.43.12c-.1-1.21-.19-2.42-.29-3.64a.23.23,0,0,0-.43-.12A1.75,1.75,0,0,0,89.53,41a12.46,12.46,0,0,1-.13,3.13l.43.06A13.52,13.52,0,0,0,89,40.41c-.07-.18-.36-.22-.41,0-.25,1.19.22,2.51-.38,3.62l.38,0c-.34-1.12-.65-2.24-.91-3.38-.05-.23-.39-.17-.4.05-.07,1.11-.13,2.23-.21,3.34l.42-.06a18.84,18.84,0,0,1-.69-3.49.25.25,0,0,0-.49-.07c-.49,1.3-.08,2.64-.42,4l.5-.07a6.62,6.62,0,0,1-.54-3.46c0-.36-.48-.37-.59-.08a10.51,10.51,0,0,0-.58,3.42l.58-.08A19.39,19.39,0,0,1,84.36,41c-.06-.34-.53-.22-.56.08a8.8,8.8,0,0,0,.25,3.39l.54-.15a30,30,0,0,1-1.08-3.4A.27.27,0,0,0,83,41a15.78,15.78,0,0,0,.28,4.16l.51-.14c-.5-1.35-1-2.69-1.4-4.07a.26.26,0,0,0-.49.14,30.54,30.54,0,0,1,.34,3.7l.48-.07A15,15,0,0,1,82,41.55c0-.29-.48-.54-.47-.22,0,1.13.51,3.14.34,3.14h.44a13.19,13.19,0,0,1-.53-2.76c0-.24-.35-.06-.42.11a1.29,1.29,0,0,0-.14.83l.43,0A2.32,2.32,0,0,0,81,41.38c-.19-.22-.51.11-.32.33l.48,1c0,.25.44-.1.43-.35s.08.06.13-.94h-.42a22.53,22.53,0,0,0,.51,3.28c0,.22.4.32.44.1.19-1.2-.28-2.38-.3-3.38h-.47a18.19,18.19,0,0,0,.72,3.34c.08.25.49.25.48,0a31.46,31.46,0,0,0-.33-3.83l-.49.14c.4,1.38.88,2.73,1.38,4.08a.27.27,0,0,0,.51-.14,15.23,15.23,0,0,1-.25-4l-.53.07a30.52,30.52,0,0,0,1.07,3.41.28.28,0,0,0,.54-.15,8.43,8.43,0,0,1-.22-3.24l-.56.08a19.39,19.39,0,0,0,.86,3.19.3.3,0,0,0,.58-.08A10.19,10.19,0,0,1,85.82,41l-.59-.08a6.72,6.72,0,0,0,.67,3.74.28.28,0,0,0,.5-.07c.3-1.33-.1-2.7.37-4l-.49-.07a18.08,18.08,0,0,0,.78,3.61.21.21,0,0,0,.42-.06c.05-1.11.13-2.23.2-3.34l-.4.05c.26,1.14.56,2.26.9,3.38.05.16.29.68.38.52.64-1.19.15-3.25.42-3.25h-.41c.45,0,.72,1.89.82,3.17,0,.24.36.08.43-.17a7.63,7.63,0,0,0,.29-1.94c0-.75-.36-1.7.17-2.38l-.4-.19c.09,1.21.19,2.41.29,3.62,0,.21.32.33.43.11A6.38,6.38,0,0,0,91,39.92l-.39.16c.77,1,.42,2.3.53,3.45,0,.2.33.35.43.12A7.36,7.36,0,0,0,92.17,40l-.46.13c.72,1,.33,2.44.84,3.58.09.19.36.11.41-.05a15.6,15.6,0,0,0,.71-3.27l-.43.06a18.71,18.71,0,0,1,.2,3.24c0,.21.31,1.07.41.87.57-1.24.9-3.09,1-3.09h-.44s-.06,2.15-.09,3.61c0,.22.31-.13.37-.33a39.72,39.72,0,0,0,1-4.61c-.13,0-.25-.13-.38-.15-.08,1.46-.13,2.88-.15,4.35a.19.19,0,0,0,.37.08,39.36,39.36,0,0,0,1.4-3.84l-.4-.06A34.71,34.71,0,0,1,96,44.43c0,.2.25.36.35.15.28-.56.57-1.12.87-1.68a7.88,7.88,0,0,0,.88-1.67c0-.44-.52,1.1-.51,1.07a21.89,21.89,0,0,1-.91,2.22.15.15,0,0,0,.25.15c.18-.25,1.62-2.34,1.7-2.3.42.23-.63,2.37-.68,2.47a.13.13,0,0,0,.22.13c.33-.43.66-.85,1-1.25.22-.24.74-1.13.68-.53a7,7,0,0,1-1.15,2.13.16.16,0,0,0,.25.2,10,10,0,0,1,1.66-1.59q.93-1,0,.42a4.06,4.06,0,0,1-1,1.05c-.17.15.05.44.24.31.49-.34,1-.76,1.51-1,.89-.5.3,0-.29.63a.18.18,0,0,0,.22.29c.13-.07,1.62-.74,1.6-.8,0,.12-1.05,1-1.13,1.11s0,.05,0,0Z"/><path class="cls-4" d="M101.44,45.44l.68-1.35a.14.14,0,0,0-.23-.17l-1.27,1.22.27.21.71-1.56a.2.2,0,0,0-.32-.25,14.5,14.5,0,0,0-1.69,1.77l.36.21a13,13,0,0,1,1-2c.13-.21-.18-.46-.35-.27a12.36,12.36,0,0,0-1.3,1.7l.42.18a5,5,0,0,1,.87-1.78c.14-.19-.14-.45-.32-.32A5.11,5.11,0,0,0,99,44.28l.41.24,1.09-2c.13-.24-.19-.51-.39-.3l-2,2.07.4.31a10.6,10.6,0,0,0,1.23-2.46c.09-.25-.25-.41-.43-.25a8.71,8.71,0,0,0-1.84,2.67l.44.19,1-2.71c.1-.27-.28-.38-.43-.18-.54.72-1,1.47-1.51,2.24l.46.12c0-1,.69-1.68.62-2.66a.26.26,0,0,0-.48-.13L96,43.56l.5.14c0-1,1.25-1.55,1.23-2.63,0-.26-.39-.39-.51-.14l-1.46,3,.5.21a6.7,6.7,0,0,0,.28-3.1c-.05-.3-.45-.25-.54,0a9.72,9.72,0,0,0-.64,2.43H96a6.49,6.49,0,0,1-.07-2.76c0-.32-.47-.36-.55-.06q-.4,1.45-.94,2.86l.56.08a11,11,0,0,1,0-2.66c0-.36-.5-.06-.55.3a26.3,26.3,0,0,0-.39,3.25h.55c-.22-2-.14-3,.22-3h-.56c.18,0,.26.89.25,1.51,0,.32.53.27.58-.06a14,14,0,0,1,.51-2.22c-.19-.05-.39.14-.58.09a9.19,9.19,0,0,0-.57,2.68h.6c-.22-2-.27-1.74-.12-2.54.05-.28-.21-.63-.47-.5-.94.46-.72,1.93-.8,2.79.2-.05.4-.15.61-.2-.49-.89.25-2.26-.74-2.78a.36.36,0,0,0-.54.3L92.78,43l.68-.19a2.84,2.84,0,0,1-.3-2c0-.41-.65-.23-.72.18a9.9,9.9,0,0,0-.37,2.49h.71a6,6,0,0,0-.58-2.66c-.13-.41-.7-.46-.73,0-.05.8-.11,1.54-.16,2.34.25,0,.49-.1.74-.13l-.41-2.65a.38.38,0,0,0-.73,0,15.22,15.22,0,0,0-.23,2.7l.71-.2a4.79,4.79,0,0,1-.57-2.27.39.39,0,0,0-.77,0l-.2,2.53.77-.1a6.92,6.92,0,0,0-.78-2.2.39.39,0,0,0-.72.2L89,42.81l.76-.1c-.27-.88-.06-1.69-.83-2.32a.39.39,0,0,0-.64.17,8.84,8.84,0,0,0-.14,2.82l.75-.1a9.85,9.85,0,0,1-.58-2.2c-.06-.42-.79-.33-.75.1a13.93,13.93,0,0,1,0,2.38l.58-.34c-.41-.31-.17-1.65-.52-2.19a.4.4,0,0,0-.74.2,12.26,12.26,0,0,0,0,2.5l.75-.2c-.47-.88,0-1.7-.68-2.49a.41.41,0,0,0-.69.29l-.13,3,.8-.11-.45-3c-.07-.49-.77-.32-.81.11-.07.78-.1,1.56-.09,2.34l.8-.11L85.87,41c-.1-.45-.78-.11-.79.34,0,1,0,2.09-.06,3.09h.8a23.94,23.94,0,0,0-.5-3.2c-.11-.45-.76-.44-.78,0-.06,1.1-.12,2.2-.18,3.2h.8c-.13-1-.25-2.12-.38-3.18a.4.4,0,0,0-.8,0q-.06,1.43-.12,2.87l.79-.11a7.72,7.72,0,0,1-.33-2.55c0-.45-.69-.45-.79,0a11.79,11.79,0,0,0-.25,3h.81a6.81,6.81,0,0,0-.93-3.06c-.23-.33-.74-.27-.76.15A15.7,15.7,0,0,0,82.62,45l.79-.35a11.22,11.22,0,0,1-.81-1.78c-.19-.55-1.08-.31-.87.24a12.41,12.41,0,0,0,.93,2,.43.43,0,0,0,.79-.33,13.7,13.7,0,0,1-.25-3.23l-.76.2a5.23,5.23,0,0,1,.82,2.54c.06.5.84.53.81,0a10.26,10.26,0,0,1,.21-2.66l-.79-.11a8.33,8.33,0,0,0,.37,2.76c.13.44.77.44.79,0,0-1,.08-1.77.11-2.77H84c.13,1,.25,2,.38,3.08a.4.4,0,0,0,.8,0c.06-1.1.12-2.23.18-3.33l-.78.09A19.05,19.05,0,0,1,85,44a.4.4,0,0,0,.8,0l.07-2.87-.79.11.54,2.54a.41.41,0,0,0,.8-.11c0-.79,0-1.56.11-2.34l-.81.11.46,3c.07.47.79.33.8-.11l.13-3-.69.29c.49.53.2,1.65.56,2.32.18.34.79.2.75-.2a12.26,12.26,0,0,1,0-2.5l-.74.2c.56.86-.12,1.76.81,2.46.25.19.57-.08.58-.34a13.93,13.93,0,0,0,0-2.38l-.75.1a10,10,0,0,0,.58,2.2c.14.37.8.36.75-.1A8.05,8.05,0,0,1,89,40.76l-.64.17c.49.4.45,1.39.63,2a.39.39,0,0,0,.76-.1L89.87,41l-.72.2a5.86,5.86,0,0,1,.7,2c.08.46.73.76.77.35a16.51,16.51,0,0,1,.2-2.07H90a12.44,12.44,0,0,0,.68,2.19c.17.35.72.42.71.06a7.08,7.08,0,0,1,.2-2.25H90.9a8.77,8.77,0,0,1,.42,2.15c.07.44.71.06.74-.34.05-.8.1-1.73.15-2.53-.24,0-.49,0-.73,0a16.07,16.07,0,0,1,.59,2.35.37.37,0,0,0,.71,0l.36-2.23-.72-.1a3.46,3.46,0,0,0,.41,2.38.37.37,0,0,0,.68-.18l.21-2.47-.54.31s.39,2.2.54,2.47a.33.33,0,0,0,.61-.16c0-.46.05-2.1.47-2.31l-.47-.36a5.29,5.29,0,0,0,.13,2.59.31.31,0,0,0,.6,0l.55-2.43a.3.3,0,0,0-.58-.16,13.2,13.2,0,0,0-.5,2.15l.58.08a6,6,0,0,0-.28-1.95.29.29,0,0,0-.56,0,4.73,4.73,0,0,0-.21,3c.06.26.51.29.55,0L95,40.91l-.55-.15a11.69,11.69,0,0,0-.06,2.81.28.28,0,0,0,.56.08c.36-.94.67-1.88.94-2.85l-.55-.07a7.12,7.12,0,0,0,.09,2.93c.07.25.5.41.54.13.13-.85.33-2.32.63-2.32h-.54a5.45,5.45,0,0,1-.28,2.68c-.08.29.37.44.5.15.49-1,1-2,1.46-3.06l-.51-.15c0,1-1.2,1.58-1.22,2.63a.27.27,0,0,0,.5.13l1.56-2.13-.48-.13c.07,1-.63,1.7-.6,2.66a.25.25,0,0,0,.46.12c.46-.78,1-1.52,1.49-2.25l-.43-.18-1,2.71c-.1.26.32.43.44.19a8.46,8.46,0,0,1,1.78-2.56L99.3,42a10.42,10.42,0,0,1-1.18,2.34c-.16.24.2.51.4.31l2-2.08-.39-.3-1.09,2a.24.24,0,0,0,.41.24,3.5,3.5,0,0,1,1.11-1.1l-.32-.32A5.07,5.07,0,0,0,99.3,45a.23.23,0,0,0,.42.18,11.84,11.84,0,0,1,1.22-1.62l-.35-.27a14,14,0,0,0-1.06,2.14c-.08.19.23.37.36.21a14.5,14.5,0,0,1,1.68-1.79l-.34-.2-.65,1.58c-.07.17.18.29.29.17.77-.8,1-1.4.37-.06-.06.13.13.25.2.12Z"/><path class="cls-4" d="M89.3,41.84l-.08-.05a.12.12,0,0,0-.12,0c-.47.31-.56,1-.64,1.52,0,.33.44.48.51.14l0-.19-.54-.07-.07.56c0,.37.49.38.61.08s.2-.54.29-.81-.48-.56-.62-.17l-.17.48.64.09a1,1,0,0,1,.3-.86L89,42.26A8.8,8.8,0,0,0,89.19,44a.34.34,0,0,0,.56.15c.43-.48.32-1.25.78-1.66L90,42.29c.2.64,0,1.14.44,1.68a.35.35,0,0,0,.59-.15,4.85,4.85,0,0,0,.2-1l-.15.27,0,.57a.37.37,0,0,0,.68.18l.88-1.22L92,42.57a5.85,5.85,0,0,0,.23.78c.12.32.64.39.73,0a4.14,4.14,0,0,1,.87-1.81c-.22-.09-.44-.44-.67-.53a1.63,1.63,0,0,1-.07.45h.79a2.9,2.9,0,0,1,.23-1.31c-.25-.07-.5,0-.75-.08,0,.47,0,1,0,1.48s.66,1.18.81.76.27-.86.29-.86h-.84s-.08.44-.22,1c.24-.06.48-.44.71-.5-.43-.46-.41-1.29-.81-1.7-.16-.16-.35-.36-.6-.32-.76.14-.78,1.46-.84,2l.8-.13a8.63,8.63,0,0,1-.14-1.24.4.4,0,0,0-.8,0c-.07.8-.28,1.56-.39,2.35,0,.32.46.87.6.61a14.34,14.34,0,0,0,.6-2.07h-.8s.07.52.15,1,.75.08.8-.33.06-1,.11-1.14-.1-.15,0,0a1.53,1.53,0,0,0,.14.38,3,3,0,0,0,.61.86.43.43,0,0,0,.71-.2,7.87,7.87,0,0,0,.23-1.82.42.42,0,0,0-.84,0,4,4,0,0,1-.25,1.29l.81.11c0-.48,0-.95-.06-1.42s-.58-.61-.75-.2A3.78,3.78,0,0,0,93,42a.39.39,0,0,0,.79,0l.06-.71c0-.32-.46-.38-.67-.12a4.7,4.7,0,0,0-1,2.32h.73c-.1,0-.17-.66-.24-.93a.39.39,0,0,0-.68-.17c-.29.41-.58.78-.86,1.19l.68.17c0-.47.05-1.56-.63-1.64s-.78,1.1-.87,1.55l.59-.16c-.28-.32-.14-1-.28-1.37A.35.35,0,0,0,90,42c-.52.47-.33,1.18-.77,1.67l.56.15a8,8,0,0,1-.21-1.51.33.33,0,0,0-.49-.28,1.5,1.5,0,0,0-.61,1.43.33.33,0,0,0,.64.09l.16-.48-.62-.17c-.09.27-.19.54-.27.82l.61.08v-.56c0-.36-.52-.31-.55,0,0,.06,0,.23,0,.23H89s.11-1.43.24-1.39.18-.17.08-.23Z"/><path class="cls-4" d="M99.4,43.59l.14,0-.07-.26a13.49,13.49,0,0,0-.91,1.34L99,45c.26-.48.88-1.13.59-1.7a.28.28,0,0,0-.25-.14c-.59,0-1.2.76-1.64,1.1l.42.32A5,5,0,0,1,98.78,43a.28.28,0,0,0-.44-.34l-1.48,1.57.44.06c-.12-.19.61-1.33.72-1.54a.27.27,0,0,0-.37-.37,4,4,0,0,0-1.44,1.47l.52.14a2,2,0,0,1,.56-1.22l-.45-.26A9.43,9.43,0,0,0,96,43.92l.48.06c-.13-.61.36-1.22.41-1.84,0-.25-.31-.35-.48-.2a10.38,10.38,0,0,0-1.3,1.48l.56.24c.09-.56.18-1.11.26-1.67,0-.26-.21-.52-.47-.36a2.63,2.63,0,0,0-1.06,1.53l.61.17.22-1.4a.31.31,0,0,0-.57-.24,7.06,7.06,0,0,0-.73,1.45c-.13.36.43.51.57.16a6.31,6.31,0,0,1,.69-1.3l-.57-.24-.23,1.4a.31.31,0,0,0,.61.17,1.93,1.93,0,0,1,.77-1.15l-.47-.36q-.13.88-.25,1.76c0,.33.42.38.57.15a9.13,9.13,0,0,1,1.16-1.39l-.48-.2c0,.77-.53,1.22-.36,2a.26.26,0,0,0,.48.06,8.09,8.09,0,0,1,.86-1.45c.18-.24-.22-.55-.41-.32A2.42,2.42,0,0,0,96.17,44a.28.28,0,0,0,.52.14,3.41,3.41,0,0,1,1.23-1.29l-.37-.37c-.25.51-1.08,1.48-.73,2.09a.28.28,0,0,0,.44.06L98.74,43l-.44-.34a5.37,5.37,0,0,0-.72,1.71c-.05.22.21.48.42.32a13.09,13.09,0,0,0,1.13-.87q.42-.3-.2.09l-.36.77c-.13.29.28.54.43.25a13.48,13.48,0,0,0,.73-1.44c.06-.14-.16-.26-.26-.15l-.1.11a.06.06,0,0,0,0,.1Z"/><path class="cls-4" d="M64.38,71.37c4.16-.18,7,3.28,11.05,3.4a6,6,0,0,0,3.75-1.14c1.88-1.31,4.57-1.58,6.8-1.72.1,0,.14-.16,0-.18a10.87,10.87,0,0,0-5.06.71,8.08,8.08,0,0,0-2,.85,5.9,5.9,0,0,1-3.55.75c-4-.15-6.93-3.35-11.05-2.68,0,0,0,0,0,0Z"/><path class="cls-4" d="M44.94,13.4A42.85,42.85,0,0,1,61,3.46,45.94,45.94,0,0,1,77.2,1.37,83.45,83.45,0,0,1,92.82,3.65a26.38,26.38,0,0,1,13.39,7.17c4.33,4.38,8,11.36,7,17.67l1.11-.29-2.28-2a.67.67,0,0,0-.94.94c.94,1.09-.29,3.57-.68,4.74l1.22-.16A64.26,64.26,0,0,0,105,22.43c-.58-.63-1.52.31-.94.94a62.38,62.38,0,0,1,6.46,9,.67.67,0,0,0,1.22-.16c.6-1.8,1.78-4.35.34-6l-.94.94,2.28,2c.33.29,1,.24,1.11-.29.87-5.71-1.63-11.62-5-16.15A26,26,0,0,0,97,3.43,74.32,74.32,0,0,0,80,.21,50.17,50.17,0,0,0,62.79,1.54,43.89,43.89,0,0,0,44,12.46c-.62.59.32,1.53.94.94Z"/><path class="cls-4" d="M45,12.88a5.63,5.63,0,0,0-2.81-1.75.67.67,0,0,0-.82.82,11,11,0,0,1,.18,3.43l1.14-.47a7.77,7.77,0,0,0-3.2-2.27c-.66-.26-1.06.67-.65,1.11,1.23,1.33,1.26,3.14,1.27,4.86s0,3.26,0,4.9c0,3.57.1,7.8.17,11.37.14,7,.31,13.59.3,21.59H42c0-8-.19-15.8-.34-23.36-.07-3.71-.14-7.76-.16-11.48,0-2.86.44-6.38-1.66-8.65-.22.37-.43.66-.65,1a6.36,6.36,0,0,1,2.61,1.89c.41.49,1.09,0,1.14-.49a12.14,12.14,0,0,0-.23-3.8l-.82.81a4.41,4.41,0,0,1,2.22,1.41c.57.64,1.51-.3.94-.94Z"/><path class="cls-4" d="M109.22,30.19l-1.05,24.93c0,.86,1.29.85,1.33,0l1.05-24.93c0-.86-1.29-.85-1.33,0Z"/><path class="cls-4" d="M57.83,18.94c5.67-1.76,11.17-4.18,17-5.38A60.14,60.14,0,0,1,83,12.29a74,74,0,0,1,9.49.2l-.18-1.31a13.05,13.05,0,0,0-5,2.69A.67.67,0,0,0,87.81,15c7.78,0,16.62,2,20.06,9.85.34.78,1.49.11,1.15-.67C105.39,16,96,13.66,87.81,13.68l.47,1.14a11.44,11.44,0,0,1,4.38-2.35.67.67,0,0,0-.18-1.31A69.34,69.34,0,0,0,82.37,11,65.55,65.55,0,0,0,75,12.18c-6,1.2-11.66,3.67-17.5,5.48-.82.25-.47,1.54.35,1.28Z"/><path class="cls-4" d="M107.6,66.93c1.53-.71,2.44-2.48,3.15-3.92a18.39,18.39,0,0,0,1.66-5.92c.46-3.5,2.15-10.51-3-11.43-.84-.15-1.2,1.13-.35,1.28,2.25.4,2.8,2.71,2.71,4.69a57.93,57.93,0,0,1-.79,6.44c-.38,2.36-1.59,6.57-4,7.7-.77.36-.1,1.51.67,1.15Z"/><path class="cls-4" d="M43,65.78c-1.18-.57-1.67-2.15-2.11-3.28a21.19,21.19,0,0,1-1.32-4.42c-.32-2-.62-4.09-.77-6.13s.28-4.58,2.69-5c.84-.15.49-1.43-.35-1.28-5.18.92-3.5,7.93-3,11.43a25.13,25.13,0,0,0,1.65,6.14c.54,1.37,1.16,3,2.58,3.7.77.37,1.44-.78.67-1.15Z"/><polygon class="cls-4" points="48.95 82.87 41.11 54.46 41.75 54.28 49.41 82.06 56.78 80.1 62.93 74.73 75.27 76.07 75.2 76.73 63.15 75.43 57.1 80.7 48.95 82.87"/><polygon class="cls-4" points="67.16 96.85 59.11 92.69 59.78 81.44 75.21 82.71 75.15 83.37 60.4 82.15 59.8 92.3 67.24 96.14 72.76 94.68 72.78 87.06 77 87.06 77 87.72 73.53 87.73 73.93 95.18 67.16 96.85"/><polygon class="cls-4" points="101.53 82.87 93.38 80.7 87.33 75.43 75.27 76.73 75.2 76.07 87.55 74.73 93.7 80.1 101.07 82.06 108.73 54.28 109.37 54.46 101.53 82.87"/><polygon class="cls-4" points="83.32 96.85 76.99 95.18 78.71 87.73 77 87.72 77 87.06 79.45 87.06 78.16 94.68 83.46 96.14 90.79 92.3 90.13 82.15 75.35 83.37 75.28 82.71 90.71 81.44 91.37 92.69 83.32 96.85"/><path class="cls-4" d="M55.75,118.46c.28,0,.29-7.83.23-11.85a91.71,91.71,0,0,0-.41-11.44c-.07-.51-.83-.28-.86.18A108.61,108.61,0,0,0,55,106.9c.15,3.92.31,9.56.69,11.56Z"/><path class="cls-4" d="M94.74,118.46c.38,0,.54-7.6.69-11.53a110.49,110.49,0,0,0,.33-11.66c0-.46-.78-.57-.86,0a90.13,90.13,0,0,0-.41,11.35c-.06,4-.05,9.89.23,11.89Z"/><path class="cls-4" d="M55.67,116.23a2.25,2.25,0,0,0-2.43,2.52c.16,2.07,2.25,3.1,4,3.66a59.79,59.79,0,0,0,18,2.46c3.1,0,6.19-.16,9.27-.45A33.24,33.24,0,0,0,92.82,123c1.61-.59,3.76-1.63,3.85-3.62a2.25,2.25,0,0,0-2.22-2.44.1.1,0,0,0,0,.2l1.47.76a1.57,1.57,0,0,1,.17,1.6,2.73,2.73,0,0,1-1,1.53,8.08,8.08,0,0,1-2.71,1.37,28.83,28.83,0,0,1-5.73,1.15,93.19,93.19,0,0,1-11.43.72,68.82,68.82,0,0,1-11.6-.92,53.6,53.6,0,0,1-5.41-1.2,10.17,10.17,0,0,1-2.74-1c-1.54-1-2.93-4.49.23-4.64a.11.11,0,0,0,0-.22Z"/><path class="cls-4" d="M143,128.14l-25-5.29c-4-.86-8.1-1.67-12.15-2.52-1.78-.37-3.56-.77-5.3-1.3s-3.51-1.51-5.33-1.94a0,0,0,0,0,0,.08c2.33,2.27,6.62,2.92,9.67,3.56,4.11.87,8.24,1.66,12.37,2.45l25.82,5s0,0,0,0Z"/><path class="cls-4" d="M6,123.11c8.24-.87,16.42-1.68,24.57-3.19s16.59-3.06,25.06-3.3a.27.27,0,0,0,0-.55c-8.09,0-16,1.64-23.94,3.14-8.51,1.62-17.08,2.93-25.7,3.86,0,0,0,0,0,0Z"/><path class="cls-4" d="M49.8,122.77c.22,1.59,1.44,2.53,2.68,3.41a24.2,24.2,0,0,0,5.44,2.9,42.27,42.27,0,0,0,13.58,2.3,64.66,64.66,0,0,0,14.39-.58c3.75-.71,8.25-2.26,10.75-5.33a.19.19,0,0,0-.26-.26,27.17,27.17,0,0,1-4.87,3.32,23.77,23.77,0,0,1-5.73,1.84,61.1,61.1,0,0,1-13,.66,49.83,49.83,0,0,1-12.66-1.58,27.69,27.69,0,0,1-5.67-2.27c-1.78-1-4.19-2.3-4.66-4.42,0,0,0,0,0,0Z"/><path class="cls-4" d="M25.89,140.52a0,0,0,0,0,0,0,0,0,0,0,0,0,0Z"/><path class="cls-4" d="M27,140.75c0-.1,48,.38,72.1,1.34,6.71.27,13.32.59,20-.22.08,0,0-.13-.08-.12-12,.54-24-.38-36-.72s-23.84-.52-35.92-.55c-6.81,0-14.11,0-20.11.14v.12Z"/><path class="cls-4" d="M64.59,71.43l1.64.37a.11.11,0,0,0,.06-.22c-.44-.12-.88-.22-1.34-.3l0,.29c.52.06,1,.12,1.57.22s.78,0,1.18.1c.05,0,.06-.08,0-.09a10.34,10.34,0,0,0-1.27-.32l-1.49-.2c-.17,0-.2.25,0,.29.45.1.9.17,1.35.24l0-.22-1.67-.16s0,0,0,0Z"/><path class="cls-4" d="M84,72.06a5.47,5.47,0,0,0,2.23.07c.23,0,.14-.35-.05-.37a11.57,11.57,0,0,0-2.23-.05c-.24,0-.33.39-.06.44a9.6,9.6,0,0,0,2,.16c.33,0,.33-.53,0-.51A9,9,0,0,1,84,71.71l-.06.44a11.57,11.57,0,0,1,2.23,0l-.05-.37c-.71.14-1.4.18-2.12.25a0,0,0,0,0,0,0Z"/><path class="cls-4" d="M64.61,71.44a1.07,1.07,0,0,0,.91.59,10,10,0,0,0,1.06.05,4,4,0,0,0,1.3,0,.15.15,0,0,0,0-.29,5,5,0,0,0-1.55-.06c-.49,0-1.26.13-1.58-.34a.08.08,0,0,0-.13.08Z"/><path class="cls-4" d="M65.32,71.61h0a.07.07,0,0,0,0,.07.12.12,0,0,0,.16,0,.13.13,0,0,0,0-.17c-.13-.08-.23,0-.35.08a.15.15,0,0,0,0,.27l.23,0a.14.14,0,0,0,.07-.27l-.22-.06,0,.27.08-.06q.11,0,0-.12l.06-.07h0a.07.07,0,0,0,0,.06Z"/><path class="cls-4" d="M65.34,71.63h0l-.05.07a1.44,1.44,0,0,1,.28.1l.54.15a2.27,2.27,0,0,0,.43.08c.21,0,.22,0,.4-.13a.06.06,0,0,0,0-.1c-.1-.1-.11-.16-.23-.22a1.34,1.34,0,0,0-.43-.08l-.49,0a1.47,1.47,0,0,0-.39,0c-.12,0-.27.29-.06.27a0,0,0,0,0,0,0v0a0,0,0,0,0-.06,0Z"/><path class="cls-4" d="M111.23,31.72c1.6-2.26.77-5.16-1-7-2.1-2.19-3.2-3.29-8.2-3.28v.33c5,0,5.55.93,7.59,2.81s3,4.68,1.34,7c-.12.18.17.34.29.17Z"/><path class="cls-4" d="M110.86,30.8c.09-2-.06-3.73-1.44-5.28a8.22,8.22,0,0,0-4.67-2.59c-.21,0-.3.28-.09.32A7.94,7.94,0,0,1,109,25.56c1.44,1.52,1.61,3.24,1.52,5.24,0,.21.32.21.33,0Z"/><path class="cls-4" d="M109.41,29.16c0-1.58-.67-4.43-2.71-4.35-.21,0-.21.34,0,.33,1.84-.08,2.42,2.64,2.38,4a.17.17,0,0,0,.33,0Z"/><path class="cls-4" d="M112.61,27.19c-.49-2.29-2.72-3.78-4.65-4.82a12.56,12.56,0,0,0-7.29-1.61c-.21,0-.21.36,0,.33a12.13,12.13,0,0,1,6.87,1.43c1.94,1,4.26,2.47,4.75,4.75,0,.21.37.12.32-.09Z"/><path class="cls-4" d="M100,20.92c2.76-1.34,5.74-.24,8.32,1,2.34,1.11,5.06,2.61,5.29,5.49,0,.21.35.21.33,0-.24-3-3-4.61-5.46-5.78-2.7-1.28-5.78-2.39-8.65-1-.19.09,0,.38.17.29Z"/><path class="cls-4" d="M99.13,20.6c2.6-1.5,5.59-.74,8.24.19,2.45.86,5.76,1.91,6.09,4.94,0,.21.36.21.33,0-.33-3-3.28-4.17-5.74-5.05-2.92-1-6.21-2-9.09-.36a.17.17,0,0,0,.17.29Z"/><path class="cls-4" d="M97.76,20c3-.87,5.74-1.44,8.76-.51a30.89,30.89,0,0,1,3.93,1.6,8.3,8.3,0,0,1,3.21,2.25c.13.17.37-.07.24-.24a8.5,8.5,0,0,0-3.27-2.3,31.54,31.54,0,0,0-4-1.64c-3.08-1-5.92-.38-8.94.51a.17.17,0,0,0,.09.32Z"/><path class="cls-4" d="M96.46,19.35a21.61,21.61,0,0,1,8.29-.78,21.17,21.17,0,0,1,4.22.87,9.31,9.31,0,0,1,3.83,1.93c.15.15.39-.09.24-.24a8.85,8.85,0,0,0-3.42-1.84,21.46,21.46,0,0,0-4.28-1,21.89,21.89,0,0,0-9,.73.17.17,0,0,0,.09.32Z"/><path class="cls-4" d="M95.32,19.05a22.8,22.8,0,0,1,17.14.82c.19.09.36-.2.17-.29a23.15,23.15,0,0,0-17.4-.86c-.2.07-.11.39.09.32Z"/><path class="cls-4" d="M94.64,18.6a48.14,48.14,0,0,1,9-1.44,25.29,25.29,0,0,1,4.43.17,12,12,0,0,1,4.41,1.24.17.17,0,0,0,.17-.29c-2.49-1.44-5.91-1.56-8.71-1.46a47.67,47.67,0,0,0-9.41,1.47c-.21,0-.12.37.09.32Z"/><path class="cls-4" d="M92.88,18.13A46.26,46.26,0,0,1,111.81,17c.21,0,.3-.29.09-.32a46.66,46.66,0,0,0-19.1,1.16.17.17,0,0,0,.09.32Z"/><path class="cls-4" d="M91.8,18.18c1.11-1.12,2.69-1.3,4.17-1.5l4.7-.62c3.3-.44,6.68-.93,10-.08a.17.17,0,0,0,.09-.32c-3.52-.91-7.14-.32-10.67.15-1.64.22-3.28.41-4.92.65a6,6,0,0,0-3.57,1.48.17.17,0,0,0,.24.24Z"/><path class="cls-4" d="M90.31,18.41c2.6-2,6-2.47,9.18-3a33.58,33.58,0,0,1,11.15-.62c.21,0,.3-.29.09-.32a34.07,34.07,0,0,0-11.33.62c-3.22.59-6.67,1.06-9.33,3.13-.17.13.07.37.24.24Z"/><path class="cls-4" d="M89.45,18.34a7.45,7.45,0,0,1,4-2.3c1.72-.53,3.71-1,5.48-1.33a58.87,58.87,0,0,1,11.08-1v-.33a60.81,60.81,0,0,0-11.79,1.19A46.7,46.7,0,0,0,92.62,16a6.94,6.94,0,0,0-3.4,2.18.14.14,0,1,0,.23.17Z"/><path class="cls-4" d="M88.28,18.22a8.16,8.16,0,0,1,4-2.33c1.73-.57,3.47-1.13,5.23-1.63a46.62,46.62,0,0,1,5.2-1.18c1.85-.3,4.2-.75,6-.07.2.07.29-.25.09-.32-1.67-.62-3.69-.28-5.41,0a44.34,44.34,0,0,0-6,1.3c-1.88.53-3.74,1.12-5.59,1.75A8,8,0,0,0,88,18c-.13.17.1.4.24.24Z"/><path class="cls-4" d="M87.05,18.65c.56-1.69,2.52-2.24,4-2.77,1.81-.64,3.62-1.28,5.46-1.85A46,46,0,0,1,108,11.75c.21,0,.21-.34,0-.33A48.11,48.11,0,0,0,95.55,14c-2,.63-3.92,1.28-5.83,2a4.54,4.54,0,0,0-3,2.54c-.07.2.25.29.32.09Z"/><path class="cls-4" d="M86.16,18.79c.4-1.69,2.26-2.36,3.68-3,1.86-.81,3.72-1.62,5.61-2.33A34.53,34.53,0,0,1,106.76,11a.17.17,0,0,0,0-.33,36.1,36.1,0,0,0-12.25,2.82c-1.9.74-3.78,1.55-5.64,2.39-1.29.58-2.68,1.34-3,2.83,0,.21.27.3.32.09Z"/><path class="cls-4" d="M85.42,18.74c0-1.05.94-1.67,1.77-2.15s1.56-.85,2.35-1.26c1.77-.92,3.56-1.79,5.41-2.54A30.75,30.75,0,0,1,106,10.34a.17.17,0,0,0,0-.33,31.92,31.92,0,0,0-12,2.83c-2,.85-3.91,1.82-5.81,2.84-1.23.66-3.06,1.42-3.09,3.06a.17.17,0,0,0,.33,0Z"/><path class="cls-4" d="M84.2,19.06c.3-1.86,2.77-2.79,4.22-3.6,1.77-1,3.57-1.92,5.42-2.75A37.26,37.26,0,0,1,105.72,9.4c.21,0,.21-.35,0-.33A38,38,0,0,0,93.4,12.55c-2,.92-4,2-5.92,3.06-1.37.78-3.32,1.61-3.6,3.36,0,.21.29.3.32.09Z"/><path class="cls-4" d="M82.65,19c2.21-3.21,5.74-5,9.23-6.53,4.06-1.74,8.32-3.56,12.8-3.67a.17.17,0,0,0,0-.33c-4.54.11-8.85,2-13,3.71-3.56,1.52-7.11,3.39-9.35,6.65-.12.18.17.34.29.17Z"/><path class="cls-4" d="M81.63,19.34a20.57,20.57,0,0,1,4.2-4.51,33.51,33.51,0,0,1,5.11-3.65,23.08,23.08,0,0,1,6.25-2q3.37-.75,6.76-1.45c.21,0,.12-.36-.09-.32q-3.54.73-7.07,1.52A22,22,0,0,0,90.52,11a35.31,35.31,0,0,0-4.92,3.56,20.86,20.86,0,0,0-4.25,4.58c-.12.18.17.35.29.17Z"/><path class="cls-4" d="M102.36,7.05a32.13,32.13,0,0,0-6.88,1.32,32.66,32.66,0,0,0-6.66,2.41,26.39,26.39,0,0,0-5,3.87c-1.38,1.27-3,2.59-3.31,4.55,0,.21.29.3.32.09.31-2,2.12-3.4,3.54-4.69a24,24,0,0,1,4.92-3.66,34.11,34.11,0,0,1,6.33-2.24,31.68,31.68,0,0,1,6.79-1.31c.21,0,.21-.35,0-.33Z"/><path class="cls-4" d="M79.63,19.8a2.64,2.64,0,0,0,1.51-1.5c.08-.2-.24-.29-.32-.09a2.28,2.28,0,0,1-1.28,1.27c-.2.08-.11.4.09.32Z"/><path class="cls-4" d="M79.93,19.24a13.92,13.92,0,0,1,1.27-2.91A7.73,7.73,0,0,1,83.74,14c1.69-1.1,2.77-2.92,4.5-4A23.35,23.35,0,0,1,94.7,8a69.65,69.65,0,0,1,6.92-1.29c.21,0,.12-.35-.09-.32a69.55,69.55,0,0,0-7.38,1.4c-2.16.54-4.7,1-6.54,2.33a15.92,15.92,0,0,0-2.13,2,15.84,15.84,0,0,1-2.73,2.14c-1.73,1.17-2.48,3-3.15,4.86-.07.2.25.29.32.09Z"/><path class="cls-4" d="M78.68,19.06a12.67,12.67,0,0,1,3.5-4.88c1.56-1.46,3.23-2.84,4.91-4.16A15.71,15.71,0,0,1,89.84,8.2a14.43,14.43,0,0,1,3.35-1.06,46.14,46.14,0,0,1,7.06-1c.21,0,.21-.35,0-.33a46.65,46.65,0,0,0-7.15,1,14.25,14.25,0,0,0-6,2.8,69,69,0,0,0-5.43,4.61A12.58,12.58,0,0,0,78.36,19c-.07.2.25.29.32.09Z"/><path class="cls-4" d="M77.87,19.31c.84-2.19,1.75-4.16,3.73-5.53A11.74,11.74,0,0,0,83.75,12a16.63,16.63,0,0,1,2.47-2.33,19.41,19.41,0,0,1,5.87-2.83c1.07-.33,2.17-.59,3.27-.81.6-.12,1.21-.23,1.81-.34.36-.06,1.75-.47,2-.09a.17.17,0,0,0,.29-.17c-.39-.69-1.77-.16-2.34-.06-1.31.22-2.62.48-3.9.82A21.37,21.37,0,0,0,86.5,9a14.74,14.74,0,0,0-2.62,2.28,15.24,15.24,0,0,1-1.15,1.22c-.54.48-1.17.83-1.74,1.26-1.8,1.34-2.65,3.38-3.44,5.42-.08.2.24.29.32.09Z"/><path class="cls-4" d="M77.07,19.25c.1-2.09,1.53-3.68,3-5,1.62-1.51,3.31-3,5-4.42a12.49,12.49,0,0,1,2.77-2A26.81,26.81,0,0,1,91,6.57a56.26,56.26,0,0,1,6.79-1.93l-.16-.28-.26.07c-.21,0-.21.32,0,.33s.28,0,.49-.17,0-.31-.16-.28a60.45,60.45,0,0,0-7.4,2.14,19,19,0,0,0-3.06,1.22,15.14,15.14,0,0,0-2.69,2.09c-1.8,1.6-3.69,3.13-5.38,4.84a7.22,7.22,0,0,0-2.43,4.64c0,.21.32.21.33,0Z"/><path class="cls-4" d="M76.39,19.32c-.38-2.26,2-4.33,3.46-5.76s2.92-2.86,4.5-4.14c3.46-2.8,7.82-3.86,12-5.22.2-.07.12-.39-.09-.32-2.37.78-4.79,1.48-7.11,2.39a19.29,19.29,0,0,0-5.46,3.29,60,60,0,0,0-5.11,4.85c-1.25,1.35-2.82,3-2.49,5,0,.21.36.12.32-.09Z"/><path class="cls-4" d="M75.1,19.42c.62-.7.58-1.76.95-2.6A10.37,10.37,0,0,1,78,14.08a39,39,0,0,1,5.33-4.92A28.46,28.46,0,0,1,95.68,3.94c.21,0,.12-.36-.09-.32A28.7,28.7,0,0,0,83.14,8.87a40.11,40.11,0,0,0-5.22,4.78A13,13,0,0,0,76.12,16a7.05,7.05,0,0,0-.56,1.21c-.23.64-.22,1.48-.69,2-.14.16.09.4.24.24Z"/><path class="cls-4" d="M74.26,19.28c.88-4.24,4.63-7.43,7.89-10a33.56,33.56,0,0,1,8.92-5q.81-.3,1.63-.56l.83-.25.28-.08a.52.52,0,0,0,.42-.21c-.21,0-.21.32,0,.33h.08a.17.17,0,0,0,.14-.08c.35-.55-.48-.44-.73-.37a30.1,30.1,0,0,0-3.8,1.3A33.83,33.83,0,0,0,83.1,8.18a38.51,38.51,0,0,0-5.79,5.06,12.65,12.65,0,0,0-3.37,6c0,.21.28.3.32.09Z"/><path class="cls-4" d="M73.66,19.25c0-2.31,1.49-4.44,3-6.08a26.22,26.22,0,0,1,4.66-3.89A81.45,81.45,0,0,1,93,2.7c.19-.09,0-.38-.17-.29a76.57,76.57,0,0,0-12.59,7.2c-3.06,2.2-6.86,5.55-6.93,9.64a.17.17,0,0,0,.33,0Z"/><path class="cls-4" d="M73.35,19c-.66-2.36,1.08-4.47,2.53-6.16a21.48,21.48,0,0,1,4.57-4C82.18,7.71,84.13,7,85.83,5.77a28.58,28.58,0,0,1,4.93-3.29c.2-.08,0-.37-.17-.29-2,.86-3.57,2.41-5.38,3.6-2,1.29-4.15,2.13-6,3.54a21.9,21.9,0,0,0-4.32,4.26C73.6,15.23,72.43,17,73,19.09a.17.17,0,0,0,.32-.09Z"/><path class="cls-4" d="M72.23,19A15.46,15.46,0,0,1,78.41,8.85a30.56,30.56,0,0,1,5.45-2.69,8.7,8.7,0,0,0,2.48-1.62,6.36,6.36,0,0,1,2.43-1.93.17.17,0,0,0-.09-.32A4.84,4.84,0,0,0,86.59,3.8a9.11,9.11,0,0,1-2.9,2.07,28.59,28.59,0,0,0-5.76,2.92,15.77,15.77,0,0,0-6,10.14c0,.21.29.3.32.09Z"/><path class="cls-4" d="M71.46,19.36a17.07,17.07,0,0,1,2.28-6.65A17.75,17.75,0,0,1,78,7.92c1.69-1.19,3.73-1.29,5.52-2.21A8.79,8.79,0,0,0,87.28,2c.1-.19-.19-.36-.29-.17a8.44,8.44,0,0,1-4.71,4.06c-1,.33-2,.49-3,.92A9.35,9.35,0,0,0,77,8.29a20.38,20.38,0,0,0-3.82,4.63,17.55,17.55,0,0,0-2.06,6.35c0,.21.28.3.32.09Z"/><path class="cls-4" d="M85.93,1.85C83.38,5,78.79,4.91,75.64,7.21a17.44,17.44,0,0,0-4.19,5.33A8.78,8.78,0,0,0,70,19.06c.05.21.37.12.32-.09-.64-2.65.6-5.13,2-7.3,1.25-1.91,2.49-3.78,4.55-4.88,3-1.62,6.95-1.87,9.23-4.71.13-.17-.1-.4-.24-.24Z"/><path class="cls-4" d="M86.41,1.78a5.06,5.06,0,0,1-2.36,2.07q-1.5.83-3.05,1.54c-1.9.87-4.08,1.42-5.65,2.87A18.37,18.37,0,0,0,71.84,13a9.59,9.59,0,0,0-1.26,5.52c0,.21.36.21.33,0a9.76,9.76,0,0,1,1.56-6,13.72,13.72,0,0,1,4.21-4.93c1.78-1.08,3.88-1.67,5.75-2.6,1.5-.74,3.5-1.52,4.27-3.12.09-.19-.19-.36-.29-.17Z"/><path class="cls-4" d="M84.71,1.46C83.44,3.55,80.45,4.19,78.33,5a16.7,16.7,0,0,0-5.74,3.24,12.56,12.56,0,0,0-3.15,4.87c-.62,1.76-1.17,4.22-.1,5.91.11.18.4,0,.29-.17-1.18-1.87-.31-4.79.54-6.65a12.09,12.09,0,0,1,4-4.81,29.19,29.19,0,0,1,6.42-2.9C82.22,3.86,84,3.23,85,1.63c.11-.18-.18-.35-.29-.17Z"/><path class="cls-4" d="M83.07,1.67C82.86,2.8,80.87,3.1,80,3.43q-1.62.6-3.2,1.28a23.07,23.07,0,0,0-5.67,3.18C68,10.42,66.17,15.27,68.28,19a.17.17,0,0,0,.29-.17,8.18,8.18,0,0,1,0-7.21,11,11,0,0,1,4.48-4.69,38.73,38.73,0,0,1,6.11-2.83c1-.38,2-.68,3-1.1a1.72,1.72,0,0,0,1.19-1.22c0-.21-.28-.3-.32-.09Z"/><path class="cls-4" d="M60.9,3.43c1.86,3.13,6.19,4,9.51,3.3a27.8,27.8,0,0,0,5.71-2.07l6.65-2.95c.2-.09,0-.37-.17-.29L77,3.9a43.77,43.77,0,0,1-5.53,2.22c-3.45,1-8.27.55-10.29-2.86a.17.17,0,0,0-.29.17Z"/><path class="cls-4" d="M61.73,3.06C66.94,8.88,75.8,4.52,81.32,1.61c.19-.1,0-.39-.17-.29C75.77,4.16,67.06,8.51,62,2.83c-.14-.16-.38.08-.24.24Z"/><path class="cls-4" d="M63.1,2.81c1.78,2.12,4.69,2.68,7.32,2.28a21.87,21.87,0,0,0,4.9-1.5c1.8-.73,3.6-1.49,5.4-2.23.2-.08.11-.4-.09-.32a63.21,63.21,0,0,1-9.12,3.5c-2.85.69-6.17.42-8.18-2-.14-.16-.37.07-.24.24Z"/><path class="cls-4" d="M64.25,2.49C69,6.07,75,3.49,79.61,1.24c.19-.09,0-.38-.17-.29-4.55,2.2-10.41,4.75-15,1.25-.17-.13-.34.16-.17.29Z"/><path class="cls-4" d="M65.1,2.52a14.78,14.78,0,0,0,13-1.34c.18-.11,0-.4-.17-.29A14.46,14.46,0,0,1,65.19,2.2c-.2-.08-.29.25-.09.32Z"/><path class="cls-4" d="M66.86,2.23c3.39,1,6.9.32,10.18-.8.2-.07.11-.39-.09-.32-3.22,1.1-6.66,1.75-10,.8a.17.17,0,0,0-.09.32Z"/><path class="cls-4" d="M68.54,1.76A9.82,9.82,0,0,0,75,1.28c.2-.08,0-.37-.17-.29a9.45,9.45,0,0,1-6.16.45.17.17,0,0,0-.09.32Z"/><path class="cls-4" d="M59.79,3.26c1.59,3.84,6,4.57,9.63,5l-.08-.31c-2.36,1.44-2.68,4.29-2.85,6.8,0,.21.32.21.33,0,.16-2.39.44-5.14,2.69-6.52a.17.17,0,0,0-.08-.31c-3.48-.41-7.8-1.08-9.31-4.75-.08-.2-.4-.11-.32.09Z"/><path class="cls-4" d="M58.81,3.91c1.25,3.51,5.12,4.42,8.39,5l-.1-.24a6.58,6.58,0,0,0-.85,6.37c.08.2.4.11.32-.09a6.28,6.28,0,0,1,.81-6.11.17.17,0,0,0-.1-.24C64.16,8,60.34,7.21,59.14,3.83c-.07-.2-.39-.11-.32.09Z"/><path class="cls-4" d="M58.37,3.94c.06,3.81,4,5.36,7.09,6.2l-.1-.24A7.78,7.78,0,0,0,65,15.31a.17.17,0,0,0,.32-.09,7.42,7.42,0,0,1,.34-5.16.17.17,0,0,0-.1-.24C62.6,9,58.77,7.58,58.71,3.94a.17.17,0,0,0-.33,0Z"/><path class="cls-4" d="M57.76,4.42c-.62,2.73,1.31,4.44,3.53,5.56.56.28,1.13.55,1.69.85s.64.35.54.89c-.05.29-.19.55-.22.85a3.75,3.75,0,0,0,1.13,3.16c.15.15.39-.09.24-.24a3.51,3.51,0,0,1-.77-3.8c.26-.92-.63-1.11-1.36-1.48C60.19,9,57.37,7.67,58.08,4.5c0-.21-.27-.3-.32-.09Z"/><path class="cls-4" d="M57.49,4.65C55.64,6.27,57,8.81,58.61,10a16.94,16.94,0,0,0,1.84,1.13c.32.18.65.35,1,.51s.78.18.94.34.08.7.1,1a7,7,0,0,0,.09.86,7.1,7.1,0,0,0,.72,2.11c.1.19.39,0,.29-.17a6.74,6.74,0,0,1-.71-3.9.17.17,0,0,0-.12-.16,10.64,10.64,0,0,1-4.54-2.48C57,8.12,56.33,6.1,57.72,4.88c.16-.14-.07-.38-.24-.24Z"/><path class="cls-4" d="M56.16,5.23a8.8,8.8,0,0,0-.32,3.07,4.41,4.41,0,0,0,1.6,2.39,15.4,15.4,0,0,0,3,1.68,2,2,0,0,1,1,.79,5.12,5.12,0,0,1,.29.94l.68,2.19c.06.2.38.12.32-.09l-.59-1.88a7.83,7.83,0,0,0-.46-1.45c-.42-.74-1.68-1.05-2.39-1.42a6.37,6.37,0,0,1-2.74-2.27c-.76-1.29-.26-2.52-.07-3.87,0-.21-.29-.3-.32-.09Z"/><path class="cls-4" d="M55.31,5.82C54,8.09,55,10.39,56.89,11.94a8.68,8.68,0,0,0,3.16,1.65c.45.13.45.12.55.56.07.28.07.59.13.88a6.67,6.67,0,0,0,.74,1.87.17.17,0,0,0,.29-.17,6.32,6.32,0,0,1-.84-3.15.17.17,0,0,0-.12-.16c-3.19-.67-7.3-3.81-5.2-7.44a.17.17,0,0,0-.29-.17Z"/><path class="cls-4" d="M54.44,5.69a5.47,5.47,0,0,0,.85,6.53,10,10,0,0,0,3,2l.75.33c.63.27.62.7.71,1.29a3.34,3.34,0,0,0,.65,1.46c.13.17.41,0,.29-.17A4,4,0,0,1,60,15.08a.79.79,0,0,0-.28-.54,7,7,0,0,0-1.53-.71A12.17,12.17,0,0,1,56.76,13c-2.39-1.62-3.51-4.5-2-7.15.1-.19-.18-.36-.29-.17Z"/><path class="cls-4" d="M53.38,6.57a9.34,9.34,0,0,0-.62,3.6,4,4,0,0,0,.8,2.77,7.51,7.51,0,0,0,2.8,1.72,12,12,0,0,1,2,.87c.64.44.78,1.45,1,2.14.07.2.39.12.32-.09-.27-.8-.38-1.91-1.17-2.34-1.08-.6-2.3-.93-3.38-1.53a3.53,3.53,0,0,1-2-3.28,9.24,9.24,0,0,1,.6-3.78c.08-.2-.24-.28-.32-.09Z"/><path class="cls-4" d="M52.86,6.8A4.58,4.58,0,0,0,52.55,13a11.12,11.12,0,0,0,3,2.44,8,8,0,0,0,1.76.61c.91.32,1,1.27,1.06,2.1,0,.21.35.21.33,0A2.8,2.8,0,0,0,57.86,16a3.55,3.55,0,0,0-1.28-.39,6.29,6.29,0,0,1-1.8-1,6.76,6.76,0,0,1-2.85-3.39A4.32,4.32,0,0,1,53.1,7c.14-.16-.09-.4-.24-.24Z"/><path class="cls-4" d="M51.86,7.44A5,5,0,0,0,51.2,13a7.1,7.1,0,0,0,2.4,2.36,13.45,13.45,0,0,0,1.65,1c.67.32,2.37.48,2.22,1.49,0,.21.29.3.32.09.13-.91-.61-1.26-1.37-1.5a11.06,11.06,0,0,1-3.51-2,4.68,4.68,0,0,1-.83-6.82c.14-.16-.09-.4-.24-.24Z"/><path class="cls-4" d="M51,8.11a3.7,3.7,0,0,0-1,2.51,4.21,4.21,0,0,0,.58,3.06,21.28,21.28,0,0,0,6,4.7.17.17,0,0,0,.17-.29,27.3,27.3,0,0,1-5.18-3.87,3.45,3.45,0,0,1-1.26-2.87,4.06,4.06,0,0,1,.91-3c.15-.15-.08-.38-.24-.24Z"/><path class="cls-4" d="M49.82,8.44a5.71,5.71,0,0,0-.9,3,3.65,3.65,0,0,0,.7,3,16.4,16.4,0,0,0,2.9,2.37c1.13.77,2.59,1.31,3.49,2.35.14.16.38-.07.24-.24a9.31,9.31,0,0,0-2.44-1.68,21.71,21.71,0,0,1-3-2.13,9,9,0,0,1-1.07-1A2.92,2.92,0,0,1,49.21,12a6.09,6.09,0,0,1,.9-3.36c.13-.17-.16-.34-.29-.17Z"/><path class="cls-4" d="M48.29,9.88c-.54,2.17-.78,4.23,1,5.87a12.41,12.41,0,0,0,5.53,3.41c.21,0,.3-.28.09-.32a11.28,11.28,0,0,1-5-3,4.3,4.3,0,0,1-1.7-2.6A8.36,8.36,0,0,1,48.61,10a.17.17,0,0,0-.32-.09Z"/><path class="cls-4" d="M61.72,17.62a1.63,1.63,0,0,1,0,.67c0,.21.29.3.32.09a2,2,0,0,0,0-.84.17.17,0,0,0-.32.09Z"/><path class="cls-4" d="M62.8,17a2.19,2.19,0,0,1-.12,1.33c-.08.2.24.28.32.09a2.5,2.5,0,0,0,.12-1.51c0-.21-.37-.12-.32.09Z"/><path class="cls-4" d="M63.76,16.58a8,8,0,0,1-.06,1.7c0,.21.29.3.32.09a8.44,8.44,0,0,0,.08-1.79c0-.21-.35-.21-.33,0Z"/><path class="cls-4" d="M64.65,16.41a8.67,8.67,0,0,1-.17,2.28c0,.21.28.3.32.09A9,9,0,0,0,65,16.41c0-.21-.34-.21-.33,0Z"/><path class="cls-4" d="M65.47,16.29a4.87,4.87,0,0,1-.28,2.42c-.08.2.25.29.32.09a5.2,5.2,0,0,0,.28-2.59c0-.21-.35-.12-.32.09Z"/><path class="cls-4" d="M66.56,15.75a9.12,9.12,0,0,1-.29,3,.17.17,0,0,0,.32.09,9.39,9.39,0,0,0,.3-3c0-.21-.35-.21-.33,0Z"/><path class="cls-4" d="M47.85,10.32a3.86,3.86,0,0,0,0,5.16c1.5,1.82,3.32,3.57,5.66,4.16a.17.17,0,0,0,.09-.32A10,10,0,0,1,48.78,16a5.28,5.28,0,0,1-1.54-2.44,3.53,3.53,0,0,1,.84-3c.14-.16-.09-.4-.24-.24Z"/><path class="cls-4" d="M46.08,11.64a7.32,7.32,0,0,0,1.17,5.23A7.12,7.12,0,0,0,49,18.71a19.94,19.94,0,0,0,3.23,1.54c.19.09.36-.2.17-.29-1.77-.82-3.49-1.36-4.71-3a7,7,0,0,1-1.33-5.25c0-.21-.29-.3-.32-.09Z"/><path class="cls-4" d="M45.42,12.4a8.26,8.26,0,0,0,1.21,5.5,6.88,6.88,0,0,0,4,3.09c.2.08.29-.25.09-.32a6.5,6.5,0,0,1-3.77-2.94,7.9,7.9,0,0,1-1.18-5.24c0-.21-.29-.3-.32-.09Z"/><path class="cls-4" d="M44.27,13.09a11.83,11.83,0,0,0,1,5c.86,1.78,2.46,2.71,4.07,3.73.18.12.35-.17.17-.29-1.56-1-3.12-1.89-4-3.61a11.46,11.46,0,0,1-.94-4.81.17.17,0,0,0-.33,0Z"/><path class="cls-4" d="M44.22,12.79a5.91,5.91,0,0,0-.06,4.79,13.77,13.77,0,0,0,3.33,4.54c.16.14.4-.09.24-.24a14.75,14.75,0,0,1-2.89-3.7A5.69,5.69,0,0,1,44.51,13c.09-.19-.2-.36-.29-.17Z"/><path class="cls-4" d="M43.17,12.62c-.3,1.84-.74,3.79-.18,5.63s2.23,3,3.53,4.25c.15.15.39-.09.24-.24-1.25-1.2-2.91-2.39-3.45-4.1s-.11-3.68.18-5.45c0-.21-.29-.3-.32-.09Z"/><path class="cls-4" d="M41.76,14.8c.24.24,0,1.18,0,1.52a6,6,0,0,0,.13,1,6.86,6.86,0,0,0,1,2.23c.47.74,1,1.44,1.52,2.14.26.36.67,1.28,1.14,1.39a.17.17,0,0,0,.2-.12l0-.07a.17.17,0,0,0-.08-.19l0,0c-.19-.09-.36.2-.17.29l-.05-.1.2-.12c-.24-.05-.61-.79-.76-1l-.8-1.11a15.36,15.36,0,0,1-1.33-2A5.7,5.7,0,0,1,42.12,16c0-.49.26-1.09-.13-1.47-.15-.15-.39.09-.24.24Z"/><path class="cls-4" d="M41.46,15.14c-1,3.61,1.4,6.31,4.14,8.27.17.12.34-.16.17-.29-2.61-1.87-5-4.43-4-7.9a.17.17,0,0,0-.32-.09Z"/><path class="cls-4" d="M107.63,45.08a5.9,5.9,0,0,1,1.06-.41l.46-.11.34-.05q.25,0,.27-.25c-.21,0-.3.28-.09.32h0a.17.17,0,0,0,.16,0c.3-.34-.24-.39-.45-.36a6.15,6.15,0,0,0-2,.61c-.19.1,0,.38.17.29Z"/><path class="cls-4" d="M106.88,43.18l3-.76-.09-.32-.23.08c-.2.07-.12.39.09.32l.23-.08a.17.17,0,0,0-.09-.32l-3,.76a.17.17,0,0,0,.09.32Z"/><path class="cls-4" d="M106.56,41.19a13.65,13.65,0,0,1,3-.88c.21,0,.12-.36-.09-.32a14,14,0,0,0-3.07.91c-.2.08,0,.37.17.29Z"/><path class="cls-4" d="M106.43,39.36a10.51,10.51,0,0,1,1.59-.59l.68-.16.34-.06q.48.13.47-.28l.2.12v0c-.07-.2-.39-.11-.32.09v0a.17.17,0,0,0,.2.12.19.19,0,0,0,.17-.13.17.17,0,0,0,0-.2c-.33-.26-1,0-1.36.08a10.85,10.85,0,0,0-2.12.74c-.19.09,0,.38.17.29Z"/><path class="cls-4" d="M106.3,37.6l3.41-.92a.17.17,0,0,0-.09-.32l-3.41.92a.17.17,0,0,0,.09.32Z"/><path class="cls-4" d="M106,35.17a25.28,25.28,0,0,1,3.52-.89l-.2-.2,0,0a.17.17,0,0,0,.09.32l.08,0a.17.17,0,0,0,.12-.12l0-.08a.17.17,0,0,0-.2-.2,25.28,25.28,0,0,0-3.52.89c-.2.07-.12.39.09.32Z"/><path class="cls-4" d="M105.63,33.5c.65-.16,1.29-.3,1.95-.42l.91-.16.66-.07c.26,0,.85.14.85-.07v.68h-.35c.07,0,.15-.34.16-.41s0-.19,0-.22,0-.22-.08-.26c-.38-.21-1.1,0-1.5.09-.91.15-1.81.32-2.7.54a.16.16,0,1,0,.09.3Z"/><path class="cls-4" d="M105.72,31.28q1.9-.48,3.83-.84c.21,0,.12-.36-.09-.32q-1.93.36-3.83.84a.17.17,0,0,0,.09.32Z"/><path class="cls-4" d="M105.68,29.44c.1-.31.88-.44,1.17-.53l1.24-.37a.17.17,0,0,0-.09-.32c-.63.18-1.25.37-1.86.57-.33.11-.68.2-.79.56-.06.21.26.29.32.09Z"/><path class="cls-4" d="M41.11,22.85a20.09,20.09,0,0,0,4.32.58l-.12-.28-.2.22c-.14.16.09.4.24.24l.2-.22a.17.17,0,0,0-.12-.28,19.69,19.69,0,0,1-4.23-.57c-.21-.05-.3.27-.09.32Z"/><path class="cls-4" d="M41.06,24.55a42.09,42.09,0,0,1,4.2.64c.21,0,.3-.28.09-.32a43,43,0,0,0-4.29-.65c-.21,0-.21.31,0,.33Z"/><path class="cls-4" d="M40.89,26.73q1.92.14,3.82.37c.21,0,.21-.31,0-.33q-1.91-.23-3.82-.37c-.21,0-.21.32,0,.33Z"/><path class="cls-4" d="M40.8,29.46h0Z"/><path class="cls-4" d="M41,31.25a24.5,24.5,0,0,1,3.41-.18.17.17,0,0,0,0-.33,24.5,24.5,0,0,0-3.41.18c-.21,0-.21.36,0,.33Z"/><path class="cls-4" d="M40.86,34a14,14,0,0,1,3.28-.25c.21,0,.21-.32,0-.33a14.42,14.42,0,0,0-3.37.26c-.21,0-.12.36.09.32Z"/><path class="cls-4" d="M41.05,36.27l3.08-.15c.21,0,.21-.34,0-.33l-3.08.15c-.21,0-.21.34,0,.33Z"/><path class="cls-4" d="M41.51,39.51a13.1,13.1,0,0,1,2-.22c.21,0,.21-.34,0-.33a13.68,13.68,0,0,0-2.13.23c-.21,0-.12.36.09.32Z"/><path class="cls-4" d="M41.06,41.38l1.74-.2c.21,0,.21-.36,0-.33l-1.74.2c-.21,0-.21.36,0,.33Z"/><path class="cls-4" d="M41.19,43.38A5.67,5.67,0,0,1,43.05,43a.17.17,0,0,0,0-.33,6,6,0,0,0-1.95.37c-.2.07-.11.4.09.32Z"/><path class="cls-4" d="M75.44,76.63q0,3.16-.17,6.32c0,.21.32.21.33,0q.19-3.16.17-6.32a.17.17,0,0,0-.33,0Z"/><path class="cls-4" d="M77.05,77.46s-.05,3.64-.13,5.66c0,.21.32.42.33.21.08-2,.12-4.87.13-5.87Z"/><path class="cls-4" d="M78.45,76.46q.24,2.91.26,5.83a.17.17,0,0,0,.33,0q0-2.92-.26-5.83c0-.21-.35-.21-.33,0Z"/><path class="cls-4" d="M79.85,76.34q.44,3,.69,6.12c0,.21.35.21.33,0q-.25-3.11-.7-6.21c0-.21-.35-.12-.32.09Z"/><path class="cls-4" d="M81.45,76q.15,3.18.54,6.33c0,.21.36.21.33,0q-.4-3.15-.54-6.33c0-.21-.34-.21-.33,0Z"/><path class="cls-4" d="M82.74,76.1c.16,1.1.31,2.2.48,3.3.06.4.15.79.24,1.19a16.7,16.7,0,0,1,.13,1.8c0,.21.36.21.33,0-.06-.52,0-1-.07-1.55s-.2-.85-.27-1.29c-.19-1.18-.34-2.36-.51-3.54,0-.21-.35-.12-.32.09Z"/><path class="cls-4" d="M84.16,75.92A14.11,14.11,0,0,1,85,78.81c.18,1,.1,2,.33,3,0,.21.37.12.32-.09-.22-1-.15-2-.33-3a14.2,14.2,0,0,0-.85-2.89c-.08-.2-.4-.11-.32.09Z"/><path class="cls-4" d="M85.73,75.47A12.6,12.6,0,0,1,87,81.71c0,.21.32.21.33,0A13,13,0,0,0,86,75.31c-.1-.19-.38,0-.29.17Z"/><path class="cls-4" d="M87.53,75.44a10.15,10.15,0,0,1,1,3.62c.07.56.1,1.12.14,1.68a5,5,0,0,0,.12,1.32.17.17,0,0,0,.16.12h.08a.16.16,0,0,0,.14-.08l0-.06c.1-.19-.19-.36-.29-.17A3.82,3.82,0,0,0,89,80c0-.53-.09-1.06-.17-1.58a9.89,9.89,0,0,0-1-3.19c-.1-.19-.39,0-.29.17Z"/><path class="cls-4" d="M89.73,77.13q.21,2.37.19,4.74a.17.17,0,0,0,.33,0q0-2.38-.19-4.74c0-.21-.35-.21-.33,0Z"/><path class="cls-4" d="M74,76.34A20.88,20.88,0,0,0,72.82,83a.17.17,0,0,0,.33,0,20.59,20.59,0,0,1,1.17-6.61c.07-.2-.25-.29-.32-.09Z"/><path class="cls-4" d="M72.16,76.07a12,12,0,0,0-1,3A11.82,11.82,0,0,0,71,80.4c0,.44.17,1.65-.19,1.94l.26,0,0,0-.06.23,0,0c.17-.12,0-.41-.17-.29l0,0a.17.17,0,0,0-.06.23l0,0a.17.17,0,0,0,.26,0c.55-.45.26-1.85.31-2.47a11.44,11.44,0,0,1,1-3.86c.09-.19-.2-.36-.29-.17Z"/><path class="cls-4" d="M69.49,75.84a23.8,23.8,0,0,0-.56,3.95q-.05,1,0,2.05c0,.3-.06.69.19.91a.17.17,0,0,0,.2,0l.06,0c.19-.1,0-.39-.17-.29.19-.1,0-1.39,0-1.56q0-.79.06-1.58a23.36,23.36,0,0,1,.51-3.39c0-.21-.27-.3-.32-.09Z"/><path class="cls-4" d="M67.5,75.67a16.33,16.33,0,0,0-1.28,6.79h.33a15.78,15.78,0,0,1,1.27-6.66c.08-.2-.24-.33-.32-.13Z"/><path class="cls-4" d="M65.39,75.6a4.5,4.5,0,0,1-.15,2c-.06.47-.13.94-.19,1.41a11.46,11.46,0,0,0,0,3.2c0,.21.36.12.32-.09a12.94,12.94,0,0,1,.09-3.84c.08-.61.17-1.22.25-1.83a1.77,1.77,0,0,0,0-1c-.08-.2-.4-.11-.32.09Z"/><path class="cls-4" d="M63.62,75.18A16.69,16.69,0,0,0,63,82.29c0,.21.36.21.33,0a16.47,16.47,0,0,1,.6-7c.06-.21-.26-.29-.32-.09Z"/><path class="cls-4" d="M62,75.85a18.57,18.57,0,0,0-.51,6c0,.21.35.21.33,0a18.29,18.29,0,0,1,.5-5.93.17.17,0,0,0-.32-.09Z"/><path class="cls-4" d="M60.13,77.47A31.09,31.09,0,0,0,60,81.87c0,.21.34.21.33,0a31.09,31.09,0,0,1,.13-4.41c0-.21-.31-.21-.33,0Z"/><path class="cls-4" d="M91.4,78.81A41.8,41.8,0,0,0,93.06,97c.07.2.39.12.32-.09a41.58,41.58,0,0,1-1.65-18.07c0-.21-.31-.21-.33,0Z"/><path class="cls-4" d="M93.23,80c-1.1,5.18,0,10.42,1.23,15.47.05.21.37.12.32-.09-1.21-5-2.32-10.18-1.23-15.3,0-.21-.28-.3-.32-.09Z"/><path class="cls-4" d="M95.24,80.92a21.7,21.7,0,0,0-.42,6.33c.36,2.31.87,4.61,1.31,6.9,0,.21.36.12.32-.09-.4-2.11-.83-4.21-1.21-6.32A20.81,20.81,0,0,1,95.56,81c0-.21-.29-.3-.32-.09Z"/><path class="cls-4" d="M96.78,81.49c-.74,3.67-.06,7.12.67,10.73,0,.21.36.12.32-.09-.72-3.54-1.4-7-.67-10.55,0-.21-.28-.3-.32-.09Z"/><path class="cls-4" d="M98.51,82a88.28,88.28,0,0,0,0,9.64c0,.21.34.21.33,0a88.28,88.28,0,0,1,0-9.64c0-.21-.32-.21-.33,0Z"/><path class="cls-4" d="M99.9,82.12a47.58,47.58,0,0,1-.06,7.74c0,.21.31.21.33,0a47.58,47.58,0,0,0,.06-7.74c0-.21-.35-.21-.33,0Z"/><path class="cls-4" d="M101,82.58a47.08,47.08,0,0,1,.5,6.27.17.17,0,0,0,.33,0,47.75,47.75,0,0,0-.51-6.36c0-.21-.35-.12-.32.09Z"/><path class="cls-4" d="M101.61,80.92l1,3.68a.17.17,0,0,0,.32-.09l-1-3.68a.17.17,0,0,0-.32.09Z"/><path class="cls-4" d="M102.58,78a13.52,13.52,0,0,0,.79,3.61c.07.2.39.12.32-.09a13.21,13.21,0,0,1-.77-3.53c0-.21-.34-.21-.33,0Z"/><path class="cls-4" d="M103.4,75.1l.42,1.91c0,.21.37.12.32-.09L103.73,75c0-.21-.37-.12-.32.09Z"/><path class="cls-4" d="M104,72.14a3.36,3.36,0,0,1,.56,1.5c0,.21.36.21.33,0a3.71,3.71,0,0,0-.6-1.67c-.12-.18-.41,0-.29.17Z"/><path class="cls-4" d="M90.38,92.85a26.36,26.36,0,0,0,.11,6.61c0,.21.36.12.32-.09a26.05,26.05,0,0,1-.1-6.52c0-.21-.32-.21-.33,0Z"/><path class="cls-4" d="M88.69,93.5a19.69,19.69,0,0,1-.36,3.57,30.34,30.34,0,0,0-.21,3.85.17.17,0,0,0,.33,0,30.31,30.31,0,0,1,.21-3.85A19.65,19.65,0,0,0,89,93.5c0-.21-.35-.21-.33,0Z"/><path class="cls-4" d="M86.78,94.77q-.26,3.5-.67,7c0,.21.31.21.33,0q.4-3.48.67-7c0-.21-.32-.21-.33,0Z"/><path class="cls-4" d="M84.84,95.6q0,3.12-.19,6.24c0,.21.32.21.33,0q.22-3.12.19-6.24a.17.17,0,0,0-.33,0Z"/><path class="cls-4" d="M83.17,96.22c.16,1.8.24,3.93.23,5.19s.33,1.26.33,0-.07-3.5-.23-5.3c0-.21-.35-.11-.33.11Z"/><path class="cls-4" d="M81.28,96.18l-.08,5.66a.17.17,0,0,0,.33,0l.08-5.66a.17.17,0,0,0-.33,0Z"/><path class="cls-4" d="M79.53,95.51q.12,3.2.31,6.4c0,.21.35.21.33,0q-.19-3.2-.31-6.4c0-.21-.34-.21-.33,0Z"/><path class="cls-4" d="M77.79,95.18q-.22,3.42-.57,6.82c0,.21.31.21.33,0q.34-3.41.57-6.82c0-.21-.32-.21-.33,0Z"/><path class="cls-4" d="M76.74,87.25a59.81,59.81,0,0,0-1.12,15c0,.21.34.21.33,0a59.44,59.44,0,0,1,1.11-14.91c0-.21-.28-.3-.32-.09Z"/><path class="cls-4" d="M74.07,87.52a79.43,79.43,0,0,1-.25,14.55c0,.21.31.21.33,0a79.43,79.43,0,0,0,.25-14.55c0-.21-.35-.21-.33,0Z"/><path class="cls-4" d="M72.31,95.43a41.71,41.71,0,0,1-.42,7c0,.21.29.3.32.09a42.22,42.22,0,0,0,.43-7.11.17.17,0,0,0-.33,0Z"/><path class="cls-4" d="M70.63,95.77l-.75,6.14c0,.21.31.21.33,0L71,95.77c0-.21-.31-.21-.33,0Z"/><path class="cls-4" d="M68.62,96c.22,2-.34,4.27-.6,6.3,0,.19.28.22.33,0l.06-.22a.17.17,0,0,0-.32-.09l-.06.22.33,0c.26-2,.82-4.25.6-6.3,0-.21-.36-.21-.33,0Z"/><path class="cls-4" d="M67.21,96.57l-.69,5.28c0,.21.31.21.33,0l.69-5.28c0-.21-.31-.21-.33,0Z"/><path class="cls-4" d="M65.31,95.63q-.48,3-.88,6c0,.21.3.21.33,0q.39-3,.87-6c0-.21-.29-.3-.32-.09Z"/><path class="cls-4" d="M63.61,94.89,62.5,102c0,.21.29.3.32.09L63.93,95c0-.21-.29-.3-.32-.09Z"/><path class="cls-4" d="M61.85,93.82a57.32,57.32,0,0,0-1,6.27c0,.21.31.21.33,0a56.51,56.51,0,0,1,1-6.18c0-.21-.27-.3-.32-.09Z"/><path class="cls-4" d="M59.65,92.77a24.58,24.58,0,0,1-.11,6.59c0,.21.29.3.32.09A24.9,24.9,0,0,0,60,92.77c0-.21-.36-.21-.33,0Z"/><path class="cls-4" d="M58,79.35a13.68,13.68,0,0,1,0,4.59q-.21,2.25-.31,4.52-.2,4.52,0,9.05c0,.21.34.21.33,0a93,93,0,0,1,0-9.37q.11-2.26.33-4.51a12.89,12.89,0,0,0-.07-4.35c-.05-.21-.37-.12-.32.09Z"/><path class="cls-4" d="M56.6,80.46l-.15,16.05a.17.17,0,0,0,.33,0l.15-16.05a.17.17,0,0,0-.33,0Z"/><path class="cls-4" d="M54.78,81.14c-.2,4.43-.29,9.32-.27,13.32h.33c0-4,.08-8.88.27-13.31a.17.17,0,0,0-.33,0Z"/><path class="cls-4" d="M52.85,82.46s-.1,6.82-.28,10.47c0,.21.32.46.33.25.18-3.66.28-7.73.28-10.73,0-1-.33-1-.33,0Z"/><path class="cls-4" d="M51.26,82.12l-.18,9a.17.17,0,0,0,.33,0l0-.18c.05-.21-.27-.3-.32-.09l0,.18.33,0,.18-9a.17.17,0,0,0-.33,0Z"/><path class="cls-4" d="M49.85,82.46A20.44,20.44,0,0,0,49,86.7v2.12a1.52,1.52,0,0,0,.4.94.38.38,0,0,0,.37,0s.1,0,.11-.05.11-.17,0-.23l0,0c-.16-.13-.83.1-.66.24S49,88.57,49,88.52v-.81c0-.59.44-1.14.44-1.73a26.84,26.84,0,0,1,.44-3.51h0Z"/><path class="cls-4" d="M48.66,82.19c.14.33-.12.93-.19,1.27s-.17.89-.23,1.34a22.05,22.05,0,0,0-.19,2.31c0,.21.33.21.33,0a20.9,20.9,0,0,1,.35-3.27c.11-.57.46-1.26.22-1.82-.08-.2-.37,0-.29.17Z"/><path class="cls-4" d="M47,81.92a13.34,13.34,0,0,1,1.14-3.12c.1-.19-.19-.36-.29-.17a13.7,13.7,0,0,0-1.18,3.2c0,.21.27.3.32.09Z"/><path class="cls-4" d="M46.17,78.33l1.22-2.59c.09-.19-.2-.36-.29-.17l-1.22,2.59c-.09.19.2.36.29.17Z"/><path class="cls-4" d="M45.72,73.77a9.23,9.23,0,0,0,.45-1.84c0-.21-.29-.3-.32-.09a9.23,9.23,0,0,1-.45,1.84c-.07.2.25.29.32.09Z"/><path class="cls-4" d="M44.93,70.73a8.5,8.5,0,0,0,.43-1.2.17.17,0,0,0-.32-.09,7.93,7.93,0,0,1-.4,1.12c-.09.19.2.36.29.17Z"/><path class="cls-4" d="M39.24,14.1c.91,3.9,2.24,8.12,6.18,9.9.77.35,1.45-.8.67-1.15-3.63-1.64-4.74-5.53-5.57-9.1-.2-.83-1.48-.48-1.28.35Z"/></g></g></svg>